<?xml version="1.0" encoding="UTF-8" standalone="no"?>
<!DOCTYPE svg PUBLIC "-//W3C//DTD SVG 1.1//EN" "http://www.w3.org/Graphics/SVG/1.1/DTD/svg11.dtd">
<svg width="100%" height="100%" viewBox="0 0 308 768" version="1.1" xmlns="http://www.w3.org/2000/svg" xmlns:xlink="http://www.w3.org/1999/xlink" xml:space="preserve" xmlns:serif="http://www.serif.com/" style="fill-rule:evenodd;clip-rule:evenodd;stroke-linejoin:round;stroke-miterlimit:2;">
    <g transform="matrix(10.5815,0,0,10.5815,161.244,763.164)">
        <path d="M0,-71.706C-0.095,-71.988 -0.353,-72.163 -0.675,-72.114C-0.967,-72.067 -1.183,-71.813 -1.183,-71.515L-1.183,-42.591L-14.628,-42.591C-14.823,-42.591 -15.007,-42.496 -15.121,-42.338C-15.234,-42.18 -15.266,-41.976 -15.202,-41.79L-1.151,0.044C-1.067,0.294 -0.835,0.457 -0.577,0.457C-0.545,0.457 -0.514,0.455 -0.479,0.45C-0.187,0.402 0.029,0.149 0.029,-0.147L0.15,-29.072L13.258,-29.072C13.453,-29.072 13.635,-29.166 13.751,-29.324C13.864,-29.482 13.896,-29.685 13.835,-29.871L0,-71.706Z" style="fill:rgb(238,66,35);fill-rule:nonzero;"/>
    </g>
</svg>
