<?xml version="1.0" encoding="UTF-8"?>
<svg id="Layer_1" data-name="Layer 1" xmlns="http://www.w3.org/2000/svg" viewBox="0 0 323.67 277.94">
  <defs>
    <style>
      .cls-1 {
        fill: #010101;
      }

      .cls-2 {
        fill: #fff;
      }

      .cls-3 {
        fill: #e54b36;
      }
    </style>
  </defs>
  <path class="cls-1" d="M289.05,101.87c-1.34-.11-8.37-.54-18.51-1.14-15.74-45.24-58.81-77.79-109.34-77.79S67.5,55.57,51.81,100.89c-8.69.51-14.63.87-15.84.98-9.54.82-14.37,9.22-14.22,17.13v58.48c0,6.81,2.71,10.83,4.99,13.01,2.61,2.5,6.04,3.93,9.68,4.05l24.23,1.38c19.95,34.91,57.55,58.49,100.56,58.49s80.49-23.51,100.47-58.33l26.87-1.53c1.87-.04,6.08-.55,9.75-4.06,2.28-2.18,4.99-6.2,4.99-13.01v-58.48c.14-7.92-4.68-16.32-14.22-17.13ZM184.9,44.97c10.19,2.58,19.73,6.78,28.34,12.31v-.03c4.33,2.78,8.43,5.91,12.25,9.33.07.06.14.13.21.19.7.63,1.39,1.27,2.07,1.92.18.18.37.36.55.53.56.54,1.11,1.08,1.65,1.63.25.25.49.5.74.76.47.49.93.97,1.39,1.47.29.31.57.62.85.93.4.45.8.89,1.19,1.35.31.36.63.72.93,1.09.34.4.67.81,1.01,1.22.34.42.68.84,1.02,1.26.27.34.53.69.8,1.04.38.5.76.99,1.14,1.5.16.21.31.43.47.65,2.97,4.1,5.63,8.43,7.94,12.97,0,0-.02,0-.03,0,.74,1.46,1.45,2.93,2.11,4.43-.97-.06-1.95-.11-2.94-.17-2.38-.14-4.82-.28-7.27-.42-.77-1.51-1.58-2.99-2.43-4.44-.82-1.41-1.69-2.79-2.59-4.15-.01-.02-.03-.04-.04-.07-.39-.59-.79-1.16-1.19-1.74-.11-.16-.22-.31-.33-.47-.36-.51-.72-1.01-1.09-1.5-.17-.22-.33-.45-.5-.67-.34-.45-.68-.9-1.03-1.34-.21-.27-.43-.54-.64-.8-.32-.4-.64-.8-.97-1.19-.27-.32-.54-.63-.81-.95-.29-.34-.58-.68-.88-1.02-.37-.42-.75-.84-1.14-1.25-.21-.22-.41-.45-.62-.67-.61-.65-1.24-1.3-1.87-1.93-.03-.03-.06-.05-.08-.08-.61-.61-1.24-1.22-1.87-1.81-.11-.1-.22-.2-.32-.3-.56-.52-1.13-1.04-1.71-1.55-.12-.1-.24-.21-.36-.31-.58-.51-1.17-1.01-1.76-1.5-.1-.08-.2-.17-.31-.25-.64-.52-1.28-1.04-1.93-1.54-.06-.04-.12-.09-.17-.13-8.76-6.76-18.83-11.9-29.75-14.98-.41-3.49-.26-6.85-.03-9.29ZM193.42,119.5h8.67l-7.28,28.8-.05.19h19.86l-1.86,7.35h-28.53l9.19-36.33ZM220.45,178.47h-1.89l-1.1-2.62h-2.93v2.62h-1.87v-8.69h6.5c.94,0,1.33.53,1.33,1.47v3.26c0,.84-.36,1.28-1.16,1.34l1.11,2.62ZM206.8,173.32v1.48h-3.69v2.14h5.26v1.52h-7.13v-8.69h7.13v1.52h-5.26v2.02h3.69ZM189.17,171.35v-1.58h8.14v1.58h-3.13v7.11h-1.89v-7.11h-3.12ZM177.52,171.35v-1.58h8.14v1.58h-3.13v7.11h-1.89v-7.11h-3.12ZM148.42,42.89c.4-.45.83-.88,1.3-1.28,4.24-3.64,10.77-4.76,16.27-2.8.27.1.54.2.81.3h.04c1.89.71,3.67,1.37,5.71,1.17,1.38-.13,2.38-.73,2.65-.91.13-.08.29-.09.41,0,.12.07.19.21.16.34-.13.7-.32,1.87-.48,3.36-.27,2.35-.48,5.52-.31,9.03.13,2.8.5,5.81,1.28,8.78.04.15-.03.31-.18.38-.15.08-.34.04-.45-.08-.56-.58-1.06-1.16-1.5-1.71-1.12-1.42-2.56-3.83-3.58-6-.32-.69-.69-1.38-1.1-2.07-2.23-3.79-5.77-7.26-11.02-6.28-2.25.42-4.11,1.63-5.24,3.39-.57.89-.94,1.9-1.11,2.97-.18,1.17-.13,2.41.19,3.66.72,2.9,3,5.05,5.28,7l.11.09,3.12-3.78c.09-.1.21-.14.31-.11h.02s.03,0,.03,0h0s.12.04.2.12l12.34,12.16,5.2,5.12c.12.13.12.32,0,.45-.07.07-.17.11-.27.11-.01,0-.02,0-.02,0-.06,0-.14-.03-.21-.07l-9.3-5.32-6.26-3.58-.1-.06-2.02,2.67-1.29,1.7c-.07.08-.16.12-.27.13,0,0-.02,0-.03,0-.08,0-.17-.04-.26-.11-1.19-.59-2.41-1.34-3.95-2.43-4.26-3-7.07-6.23-8.59-9.81-.31-.73-.59-1.48-.79-2.24-.42-1.6-.63-3.16-.63-4.66-.02-3.7,1.2-7.04,3.56-9.65ZM143.31,78.47c.38-1.78.77-3.61.85-5.45,0-.02,0-.03,0-.05.05-1.27-.07-2.16-.27-3.63-.02-.15.08-.3.23-.35.04-.01.08-.02.12-.02.12,0,.24.06.31.16,3.62,4.88,9.05,8.71,17.09,12.06.03.01.06.03.1.04.14.06.18.19.18.29,0,.12-.07.21-.18.24-3.59,1.09-9.06.76-11.24.06l-.13-.04-.04.13c-1.01,2.96-.41,6.3,1.49,8.98.44.62.95,1.21,1.53,1.75.66.61,1.42,1.12,2.24,1.53,3.1,1.56,7.11,1.65,10.34.23.81-.36,1.58-.81,2.27-1.36,1.1-.89,2-1.99,2.66-3.22.95-1.76,1.42-3.78,1.37-5.84-.03-1.1-.21-2.2-.55-3.28-.05-.16-.01-.3.1-.38.12-.09.28-.11.42-.03l6.83,4.04c.1.06.16.17.16.28,0,.5-.03,1-.06,1.49-.13,1.79-.49,3.48-1.08,5.05-.57,1.51-1.35,2.91-2.32,4.17-.52.67-1.08,1.32-1.72,1.92-.62.58-1.28,1.09-1.97,1.58-3.12,2.21-6.87,3.45-10.82,3.5-.04,0-.08,0-.12,0h-.25c-3.99-.02-7.82-1.2-10.93-3.3-.99-.66-1.9-1.42-2.73-2.26-.39-.4-.75-.81-1.09-1.24-1.02-1.27-1.83-2.67-2.43-4.17-.84-2.09-1.27-4.36-1.23-6.71.03-2.03.42-3.99.88-6.17ZM117.58,52.39s0,.05,0,.07c5.87-2.98,12.08-5.38,18.55-7.12-.9,3.01-1.2,6.25-.9,9.58-21.13,6.57-38.87,20.94-49.82,39.72-.02,0-.04,0-.06,0-.85,1.45-1.65,2.94-2.42,4.44-2.42.14-4.82.28-7.16.41-1.02.06-2.03.12-3.03.17,9.05-20.45,24.97-37.2,44.84-47.28ZM61.44,177.17l-9.85-1.33-10.86-1.46,9.97-1.27,10.75-1.37v5.43ZM78.27,178.47h-7.22v-8.69h1.87v7.09h5.35v1.6ZM74.41,126.28h-21.92l-1.21,4.78,13.33,3.53h.05s7.18,1.91,7.18,1.91c.69.18,1.24.39,1.67.66.01,0,.03.01.04.02,1.35.87,1.42,2.35.6,5.58l-.43,1.71-.03.13-1.13,4.46c-.89,3.52-3.21,5.81-6.51,6.54-.01,0-.02,0-.03,0-.74.16-1.53.25-2.36.25h-27.26l2.69-10.54.47-1.68,6.1,1.51,2.02.5-.94,3.45h17.27l.8-3.15.03-.14.8-3.17-.99-.26h-.05s-19.11-5.08-19.11-5.08l-.35-.09c-2.8-.78-3.41-2.19-2.49-5.8l1.6-6.34c.52-2.07,1.48-3.39,2.6-4.22,1.36-1.01,2.96-1.3,4.35-1.3h99.93,0s-.19,0-.19,0l-3.97,6.78h-24.83l-1.92,7.61-.05.19h22.23l-3.91,6.66h-20l-2.05,8.13-.05.19h28.66l17.43-29.56h13.99l2.94,36.33h-8.87l-.44-6.93v-.13h-16.16l-4.08,7.06h-43.86l7.43-29.37.05-.19h-14.57l-7.47,29.56h-8.73l7.43-29.37.05-.19h-15.77ZM175.2,178.47h-1.94l-.6-1.74h-3.87l-.6,1.74h-1.94l3.09-8.69h2.77l3.08,8.69ZM162.4,175.18v1.85c0,.72-.51,1.44-1.64,1.44h-6.23v-8.69h6.2c1.05,0,1.44.52,1.44,1.47v1.77c0,.44-.12.79-.43,1,.46.19.65.58.65,1.16ZM141.01,174l-1.91,4.47h-2.09l-1.87-4.47c-.17-.41-.46-1.18-.75-1.99.04.74.08,1.44.08,1.86v4.6h-1.76v-8.69h2.43l2.88,6.87h.11l2.83-6.87h2.43v8.69h-1.76v-4.57c0-.36.04-1.03.08-1.73-.26.74-.53,1.43-.69,1.83ZM126.3,176.86v-7.09h1.86v7.11c0,.8-.54,1.58-1.62,1.58h-4.74c-.86,0-1.59-.43-1.59-1.47v-7.22h1.86v7.09h4.24ZM115.5,169.78v8.69h-1.89v-8.69h1.89ZM102.57,174.96v3.5h-1.87v-8.69h1.87v3.64h4.44v-3.64h1.86v8.69h-1.86v-3.5h-4.44ZM88.62,171.35v-1.58h8.14v1.58h-3.13v7.11h-1.89v-7.11h-3.12ZM83.08,178.47h-.43v-8.69h1.89v8.69h-1.46ZM161.2,235.32c-15.63,0-30.39-3.75-43.47-10.37,0,0,0,0,0,0-.14-.07-.28-.15-.43-.22-2.14-1.1-4.24-2.27-6.28-3.52-.48-.3-.97-.59-1.45-.9-.5-.32-1-.64-1.5-.97-.87-.57-1.73-1.16-2.58-1.76-.34-.24-.68-.5-1.02-.74-.69-.5-1.38-1.01-2.05-1.53-.33-.25-.66-.51-.99-.77-.94-.74-1.87-1.49-2.78-2.27-.08-.06-.15-.13-.23-.19-.71-.61-1.41-1.22-2.1-1.85-.16-.15-.33-.3-.49-.45-.59-.55-1.18-1.1-1.76-1.66-.22-.22-.45-.43-.67-.65-.5-.5-1-1-1.49-1.51-.27-.28-.54-.55-.81-.83-.42-.45-.84-.9-1.26-1.36-.31-.34-.63-.68-.93-1.03-.34-.38-.67-.77-1-1.15-.37-.43-.74-.85-1.1-1.29-.18-.22-.36-.45-.54-.67-.64-.78-1.26-1.57-1.87-2.37h0s7.37.42,7.37.42l4.9.28h0c.05.06.11.12.16.17.19.21.38.42.58.63,1.26,1.34,2.56,2.63,3.9,3.89.02.02.05.04.07.07.66.61,1.32,1.21,2,1.81.03.03.07.06.1.09.68.6,1.37,1.18,2.07,1.76,0,0,0,0,.01.01,3.62,2.98,7.49,5.67,11.56,8.05,0,0,0,.01,0,.02,12.96,7.56,28.01,11.9,44.07,11.9,19.68,0,37.86-6.52,52.51-17.51v-.07c4.24-3.18,8.18-6.75,11.77-10.63h.08s4.96-.29,4.96-.29l7.27-.41h.08c-17.68,23.01-45.47,37.88-76.67,37.88ZM225.11,178.47v-8.69h1.89v8.69h-1.89ZM238.85,171.3h-5.26v2.02h3.69v1.48h-3.69v2.14h5.26v1.52h-7.13v-8.69h7.13v1.52ZM250.95,172.58h-1.83v-1.28h-4.24v1.42l5.21,1.31c.43.1.64.29.75.61,0,.02.02.05.03.07.05.17.08.37.08.63v1.58c0,.9-.58,1.55-1.64,1.55h-4.69c-.86,0-1.61-.43-1.61-1.47v-1.48h1.86v1.43h4.24v-1.58l-5.16-1.28c-.71-.19-.94-.56-.94-1.27v-1.79c0-.88.57-1.24,1.44-1.24h5.03c1.16,0,1.46.64,1.46,1.69v1.12ZM270.82,175.83l-9.92,1.34v-5.43l10.8,1.38,9.91,1.26-10.79,1.45ZM278.45,155.84h-8.61l3.6-14.22.05-.19h-18.08l-3.64,14.41h-8.67l5.61-22.18.03-.12,1.8-7.13.05-.19h-14.26l-7.49,29.62h-8.73l7.44-29.43.05-.19h-18.86l1.7-6.72h50.52l-3.31,13.1-.02.06-.4,1.57-.05.19h18.08l1.3-5.16,2.47-9.77h8.61l-9.19,36.33ZM214.54,174.35h4.13v-2.97h-4.13v2.97ZM172.17,175.26l-1.35-3.99h-.17l-1.36,3.99h2.87ZM160.32,171.3h-3.91v2.09h3.91v-2.09ZM156.41,176.94h4.1v-2.19h-4.1v2.19ZM168.59,126.55l-.02-.38h-1.63l-9.27,16.12h11.95l-1.03-15.74Z"/>
  <path class="cls-2" d="M72.91,169.78h-1.87v8.69h7.22v-1.6h-5.35v-7.09ZM82.65,177.57v.9h1.89v-8.69h-1.89v7.8ZM88.62,171.35h3.12v7.11h1.89v-7.11h3.13v-1.58h-8.14v1.58ZM107.01,173.41h-4.44v-3.64h-1.87v8.69h1.87v-3.5h4.44v3.5h1.86v-8.69h-1.86v3.64ZM113.61,178.47h1.89v-8.69h-1.89v8.69ZM126.3,176.86h-4.24v-7.09h-1.86v7.22c0,1.04.73,1.47,1.59,1.47h4.74c1.08,0,1.62-.78,1.62-1.58v-7.11h-1.86v7.09ZM138.12,176.65h-.11l-2.88-6.87h-2.43v8.69h1.76v-4.6c0-.41-.04-1.12-.08-1.86.29.82.58,1.58.75,1.99l1.87,4.47h2.09l1.91-4.47c.17-.4.43-1.1.69-1.83-.04.7-.08,1.36-.08,1.73v4.57h1.76v-8.69h-2.43l-2.83,6.87ZM161.75,174.01c.31-.21.43-.56.43-1v-1.77c0-.95-.39-1.47-1.44-1.47h-6.2v8.69h6.23c1.12,0,1.64-.72,1.64-1.44v-1.85c0-.59-.19-.98-.65-1.16ZM156.41,171.3h3.91v2.09h-3.91v-2.09ZM160.52,176.94h-4.1v-2.19h4.1v2.19ZM169.35,169.78l-3.09,8.69h1.94l.6-1.74h3.87l.6,1.74h1.94l-3.08-8.69h-2.77ZM169.3,175.26l1.36-3.99h.17l1.35,3.99h-2.87ZM177.52,171.35h3.12v7.11h1.89v-7.11h3.13v-1.58h-8.14v1.58ZM189.17,171.35h3.12v7.11h1.89v-7.11h3.13v-1.58h-8.14v1.58ZM201.24,178.47h7.13v-1.52h-5.26v-2.14h3.69v-1.48h-3.69v-2.02h5.26v-1.52h-7.13v8.69ZM219.17,169.78h-6.5v8.69h1.87v-2.62h2.93l1.1,2.62h1.89l-1.11-2.62c.8-.05,1.16-.49,1.16-1.34v-3.26c0-.94-.39-1.47-1.33-1.47ZM218.67,174.35h-4.13v-2.97h4.13v2.97ZM225.11,178.47h1.89v-8.69h-1.89v8.69ZM231.72,178.47h7.13v-1.52h-5.26v-2.14h3.69v-1.48h-3.69v-2.02h5.26v-1.52h-7.13v8.69ZM250.95,172.58v-1.12c0-1.04-.29-1.69-1.46-1.69h-5.03c-.87,0-1.44.36-1.44,1.24v1.79c0,.71.24,1.08.94,1.27l5.16,1.28v1.58h-4.24v-1.43h-1.86v1.48c0,1.04.75,1.47,1.61,1.47h4.69c1.05,0,1.64-.66,1.64-1.55v-1.58c0-.26-.03-.46-.08-.63,0-.03-.02-.05-.03-.07-.11-.31-.33-.51-.75-.61l-5.21-1.31v-1.42h4.24v1.28h1.83Z"/>
  <path class="cls-3" d="M85.4,94.65c10.95-18.78,28.69-33.15,49.82-39.72-.3-3.33,0-6.57.9-9.58-6.48,1.74-12.69,4.14-18.55,7.12,0-.02,0-.05,0-.07-19.87,10.08-35.8,26.83-44.84,47.28,1-.06,2.01-.12,3.03-.17,2.34-.13,4.74-.27,7.16-.41.76-1.51,1.57-2.99,2.42-4.44.02,0,.04,0,.06,0ZM247.44,95.09c-2.31-4.54-4.97-8.87-7.94-12.97-.16-.22-.31-.44-.47-.65-.37-.51-.75-1-1.14-1.5-.27-.35-.53-.69-.8-1.04-.34-.42-.68-.84-1.02-1.26-.33-.41-.67-.82-1.01-1.22-.31-.37-.62-.73-.93-1.09-.39-.45-.79-.9-1.19-1.35-.28-.31-.56-.62-.85-.93-.46-.49-.92-.98-1.39-1.47-.24-.25-.49-.51-.74-.76-.54-.55-1.1-1.1-1.65-1.63-.18-.18-.36-.36-.55-.53-.68-.65-1.37-1.29-2.07-1.92-.07-.06-.14-.13-.21-.19-3.83-3.42-7.92-6.54-12.25-9.33v.03c-8.61-5.53-18.15-9.73-28.34-12.31-.23,2.44-.38,5.79.03,9.29,10.93,3.08,20.99,8.22,29.75,14.98.06.04.12.09.17.13.65.5,1.29,1.02,1.93,1.54.1.08.21.17.31.25.59.49,1.18.99,1.76,1.5.12.1.24.21.36.31.58.51,1.14,1.03,1.71,1.55.11.1.22.2.32.3.63.6,1.26,1.2,1.87,1.81.03.03.06.05.08.08.63.63,1.26,1.28,1.87,1.93.21.22.41.45.62.67.38.41.76.83,1.14,1.25.3.34.59.68.88,1.02.27.31.54.63.81.95.33.39.65.79.97,1.19.21.27.43.53.64.8.35.44.69.89,1.03,1.34.17.22.33.44.5.67.37.5.73,1,1.09,1.5.11.16.22.31.33.47.4.58.8,1.15,1.19,1.74.01.02.03.04.04.07.9,1.36,1.76,2.74,2.59,4.15.85,1.46,1.66,2.94,2.43,4.44,2.45.14,4.89.28,7.27.42.99.06,1.96.11,2.94.17-.67-1.5-1.37-2.97-2.11-4.43,0,0,.02,0,.03,0ZM230.53,197.86l-4.96.28h-.08c-3.59,3.89-7.53,7.45-11.77,10.63v.07c-14.65,10.99-32.84,17.51-52.52,17.51-16.05,0-31.11-4.34-44.07-11.9,0,0,0-.01,0-.02-4.07-2.37-7.94-5.07-11.56-8.05,0,0,0,0-.01-.01-.7-.58-1.39-1.16-2.07-1.76-.03-.03-.07-.06-.1-.09-.67-.59-1.34-1.19-2-1.81-.02-.02-.05-.04-.07-.07-1.34-1.25-2.64-2.55-3.9-3.89-.19-.21-.38-.42-.58-.63-.05-.06-.11-.12-.16-.17h0l-4.9-.28-7.37-.42h0c.61.8,1.24,1.59,1.87,2.37.18.22.36.45.54.67.36.43.73.86,1.1,1.29.33.39.66.77,1,1.15.31.35.62.69.93,1.03.42.46.83.91,1.26,1.36.27.28.54.56.81.83.49.51.99,1.01,1.49,1.51.22.22.44.44.67.65.58.56,1.17,1.11,1.76,1.66.16.15.33.3.49.45.69.63,1.39,1.24,2.1,1.85.08.06.15.13.23.19.91.78,1.84,1.53,2.78,2.27.33.26.66.51.99.77.68.52,1.36,1.03,2.05,1.53.34.25.68.5,1.02.74.85.6,1.71,1.19,2.58,1.76.5.33,1,.65,1.5.97.48.3.96.6,1.45.9,2.05,1.25,4.14,2.42,6.28,3.52.14.07.28.15.43.22,0,0,0,0,0,0,13.08,6.62,27.84,10.37,43.47,10.37,31.2,0,58.98-14.87,76.67-37.88h-.08s-7.27.42-7.27.42ZM40.73,174.38l10.86,1.46,9.85,1.33v-5.43l-10.75,1.37-9.97,1.27ZM271.71,173.11l-10.8-1.38v5.43l9.92-1.34,10.79-1.45-9.91-1.26ZM146.09,95.51c.34.43.71.84,1.09,1.24.82.84,1.74,1.59,2.73,2.26,3.11,2.1,6.94,3.28,10.93,3.3h.25s.07,0,.12,0c3.95-.05,7.7-1.29,10.82-3.5.69-.49,1.35-1,1.97-1.58.64-.6,1.2-1.25,1.72-1.92.98-1.27,1.76-2.66,2.32-4.17.59-1.57.95-3.26,1.08-5.05.03-.49.06-.98.06-1.49,0-.12-.06-.22-.16-.28l-6.83-4.04c-.13-.08-.3-.06-.42.03-.11.09-.15.23-.1.38.34,1.08.52,2.19.55,3.28.06,2.06-.42,4.08-1.37,5.84-.66,1.23-1.56,2.33-2.66,3.22-.69.55-1.45,1-2.27,1.36-3.22,1.42-7.24,1.33-10.34-.23-.82-.41-1.58-.92-2.24-1.53-.58-.54-1.09-1.13-1.53-1.75-1.91-2.69-2.5-6.02-1.49-8.98l.04-.13.13.04c2.19.7,7.65,1.03,11.24-.06.11-.03.17-.12.18-.24,0-.1-.04-.23-.18-.29-.03-.01-.06-.03-.1-.04-8.03-3.35-13.47-7.18-17.09-12.06-.07-.1-.19-.16-.31-.16-.04,0-.08,0-.12.02-.15.05-.25.2-.23.35.2,1.47.33,2.36.27,3.63,0,.02,0,.03,0,.05-.08,1.83-.47,3.67-.85,5.45-.46,2.18-.85,4.14-.88,6.17-.04,2.35.39,4.62,1.23,6.71.6,1.49,1.42,2.9,2.43,4.17Z"/>
  <path class="cls-2" d="M151.13,119.5h-.19.19s0,0,0,0ZM194.8,148.3l7.28-28.8h-8.67l-9.19,36.33h28.53l1.86-7.35h-19.86l.05-.19ZM162.47,119.5l-17.43,29.56h-28.66l.05-.19,2.05-8.13h20l3.91-6.66h-22.23l.05-.19,1.92-7.61h24.83l3.97-6.78H51.19c-1.39,0-2.99.29-4.35,1.3-1.12.83-2.08,2.16-2.6,4.22l-1.6,6.34c-.92,3.62-.31,5.03,2.49,5.8l.35.09,19.11,5.07h.05s.99.28.99.28l-.8,3.17-.03.14-.8,3.15h-17.27l.94-3.45-2.02-.5-6.1-1.51-.47,1.68-2.69,10.54h27.26c.83,0,1.62-.08,2.36-.25.01,0,.02,0,.03,0,3.3-.73,5.62-3.02,6.51-6.54l1.13-4.46.03-.13.43-1.71c.82-3.23.75-4.71-.6-5.58-.01,0-.02-.01-.04-.02-.43-.27-.98-.48-1.67-.66l-7.18-1.9h-.05s-13.33-3.54-13.33-3.54l1.21-4.78h37.68l-.05.19-7.43,29.37h8.73l7.47-29.56h14.57l-.05.19-7.43,29.37h43.86l4.08-7.06h16.15v.13s.45,6.93.45,6.93h8.87l-2.94-36.33h-13.99ZM157.67,142.29l9.27-16.12h1.63l.02.38,1.03,15.74h-11.95ZM279.03,119.5l-2.47,9.77-1.3,5.16h-18.08l.05-.19.4-1.57.02-.06,3.31-13.1h-50.52l-1.7,6.72h18.86l-.05.19-7.44,29.43h8.73l7.49-29.62h14.26l-.05.19-1.8,7.13-.03.12-5.61,22.18h8.67l3.64-14.41h18.08l-.05.19-3.6,14.22h8.61l9.19-36.33h-8.61ZM146.28,59.43c1.52,3.57,4.33,6.8,8.59,9.81,1.53,1.08,2.75,1.83,3.95,2.43.09.07.18.11.26.11,0,0,.02,0,.03,0,.11,0,.2-.05.27-.13l1.29-1.7,2.02-2.67.1.06,6.26,3.58,9.3,5.32c.06.04.15.07.21.07,0,0,0,0,.02,0,.1,0,.2-.04.27-.11.12-.13.13-.32,0-.45l-5.2-5.12-12.34-12.16c-.08-.08-.18-.12-.2-.12h-.03s-.02,0-.02,0c-.1-.02-.22.02-.31.11l-3.12,3.78-.11-.09c-2.27-1.95-4.55-4.11-5.28-7-.31-1.26-.37-2.5-.19-3.66.17-1.07.54-2.08,1.11-2.97,1.13-1.77,3-2.97,5.24-3.39,5.26-.98,8.79,2.49,11.02,6.28.41.69.78,1.39,1.1,2.07,1.02,2.17,2.46,4.58,3.58,6,.43.55.94,1.13,1.5,1.71.11.12.3.15.45.08.15-.07.22-.23.18-.38-.78-2.97-1.15-5.97-1.28-8.78-.16-3.5.05-6.68.31-9.03.17-1.49.36-2.66.48-3.36.02-.14-.04-.27-.16-.34-.13-.08-.29-.07-.41,0-.27.18-1.27.77-2.65.91-2.04.2-3.82-.46-5.71-1.15h-.04c-.27-.11-.54-.21-.81-.31-5.49-1.96-12.03-.84-16.27,2.8-.47.4-.9.83-1.3,1.28-2.35,2.61-3.57,5.95-3.56,9.65,0,1.5.21,3.06.63,4.66.2.76.48,1.51.79,2.24Z"/>
</svg>