<?xml version="1.0" encoding="UTF-8"?>
<svg id="Layer_1" data-name="Layer 1" xmlns="http://www.w3.org/2000/svg" viewBox="0 0 71.57 71.57">
  <defs>
    <style>
      .cls-1 {
        fill: #fff;
      }

      .cls-2 {
        fill: #e54b36;
      }
    </style>
  </defs>
  <path class="cls-2" d="M21.37,62.5c3.39,3.47,8.32,5.47,13.51,5.5h.24s.07,0,.11,0c4.76-.06,9.26-1.84,12.65-5.02,3.37-3.16,5.14-7.48,5.13-12.5,0-.11-.06-.22-.16-.28l-6.75-3.99c-.13-.08-.3-.06-.41.03-.11.09-.15.22-.1.38,1.42,4.5.04,9.41-3.44,12.22-4.07,3.29-10.93,3.1-14.69-.39-3.05-2.85-4.23-7.02-3-10.63l.04-.13.13.04c2.16.7,7.57,1.02,11.13-.06.11-.03.17-.12.18-.24,0-.1-.04-.23-.17-.28-8-3.32-13.41-7.13-17-11.98-.07-.1-.19-.16-.31-.16-.04,0-.08,0-.12.02-.15.05-.25.2-.23.35.2,1.46.32,2.33.27,3.59-.08,1.83-.47,3.66-.85,5.43-.46,2.15-.84,4.1-.87,6.1-.08,4.54,1.59,8.8,4.71,11.98Z"/>
  <path class="cls-1" d="M19.69,23.36c1.17,4.44,4.21,8.34,9.28,11.92,1.52,1.07,2.72,1.81,3.9,2.4.09.07.18.11.26.11,0,0,.02,0,.03,0,.11,0,.2-.05.27-.13l3.28-4.32.1.06,15.4,8.81c.06.04.15.07.2.07,0,0,0,0,.02,0,.1,0,.2-.04.27-.11.12-.13.13-.32,0-.45l-17.35-17.1c-.08-.08-.18-.12-.2-.12h-.03s-.02,0-.02,0c-.1-.02-.22.02-.31.11l-3.09,3.74-.1-.09c-2.25-1.93-4.51-4.06-5.22-6.93-.6-2.39-.27-4.72.91-6.57,1.12-1.75,2.96-2.94,5.19-3.36,6.15-1.15,9.92,3.86,11.99,8.27,1.01,2.14,2.43,4.53,3.54,5.93.43.55.93,1.12,1.48,1.69.11.12.3.15.45.07.15-.07.22-.23.18-.38-2.35-8.94-.96-18.29-.48-20.94.02-.13-.04-.27-.16-.34-.12-.08-.28-.07-.41,0-.27.18-1.25.77-2.62.9-2.02.2-3.78-.45-5.65-1.14h-.04c-.27-.11-.53-.21-.8-.31-5.44-1.94-11.9-.83-16.09,2.77-4.27,3.67-5.8,9.29-4.18,15.42Z"/>
</svg>