<?xml version="1.0" encoding="UTF-8"?>
<svg id="Layer_2" data-name="Layer 2" xmlns="http://www.w3.org/2000/svg" xmlns:xlink="http://www.w3.org/1999/xlink" viewBox="0 0 1374.75 3958.93">
  <defs>
    <style>
      .cls-1 {
        fill: none;
      }

      .cls-2 {
        fill: url(#radial-gradient);
      }

      .cls-3 {
        clip-path: url(#clippath);
      }
    </style>
    <clipPath id="clippath">
      <polyline class="cls-1" points="1374.75 0 1374.75 3958.93 0 3958.93 0 0"/>
    </clipPath>
    <radialGradient id="radial-gradient" cx="684.01" cy="1298.24" fx="684.01" fy="1298.24" r="1270.85" gradientUnits="userSpaceOnUse">
      <stop offset="0" stop-color="#1a1a1a"/>
      <stop offset=".59" stop-color="#181818"/>
      <stop offset=".8" stop-color="#111"/>
      <stop offset=".95" stop-color="#050505"/>
      <stop offset="1" stop-color="#000"/>
    </radialGradient>
  </defs>
  <g id="Layer_1-2" data-name="Layer 1">
    <g class="cls-3">
      <path class="cls-2" d="M272.18,970.88l2.8,3.51c8.35,16.64,24.1,29.39,42.12,34.09-1.9-6.94-5.25-13.49-9.81-19.06-8.6-10.52-21.57-17.37-35.11-18.54ZM102.43,933.73c19.5,15.64,44.23,24.63,69.22,25.17,19.31.42,38.33-4.03,57.37-7.29,19.03-3.26,38.83-5.31,57.46-.22s35.98,18.72,40.54,37.49c-.79-16.59-7.92-32.79-19.6-44.59,20.26,7.34,36.04,25.88,40.05,47.05.04-15.36-3.21-30.72-9.46-44.75,29.15,41.98,25.55,97.68,20.78,148.57,5.11-9.05,10.22-18.09,15.33-27.14-7.44,13.17,15.8,55.64,22.35,67.11,8.44,14.79,26.63,45.65,43.73,49.85,2.81-12.44-8.9-26.56-13.74-37.27-7.89-17.48-13.58-35.9-18.05-54.53-9.14-38.15-13.46-77.37-23.4-115.32-10.09-38.51-29.68-79.24-66.91-93.31-35.34-13.35-74.61,1.64-108.49,18.35-33.88,16.71-69.74,35.91-107.17,30.82ZM183.16,973.25l7.32,4.51c7.27,9.32,19.71,14.33,31.41,12.64s22.22-10,26.56-20.99c-20.93,6.94-43.69,8.28-65.29,3.85ZM1386.09,1058.5l499.53-174.18-3.11-8.94-501.04,174.71c1.65,2.74,3.18,5.55,4.63,8.41ZM1331.75,1447.16c24.68-18.21,46.89-43.56,58.23-60.74,3.08-4.66,6.29-9.59,9.62-14.69,12.96-19.83,27.82-42.19,44.29-61.42,1.56-1.81,3.12-3.61,4.7-5.36-1.58,1.03-3.14,2.11-4.7,3.22-16.09,11.45-30.92,26.85-44.29,42.55-11.18,13.12-21.33,26.43-30.35,37.8-13.7,17.27-43.73,44.78-74.39,58.64-17.36,7.85-34.93,11.33-49.85,6.1,22.22,27.89,56.35,16.32,86.74-6.1ZM1373.11,1037.82l498.51-192.1-3.41-8.83-501.41,193.22c2.21,2.5,4.3,5.07,6.31,7.71ZM930.03,671.83c11-2.27,20.61-10.55,24.35-21.15,3.89-11.04,1.28-24.11-6.57-32.8-2.3,18.92-8.39,37.37-17.78,53.95ZM953.68,529.78l-2.6-4.45c3.62,21.74,4.29,43.96,1.99,65.88,2.31,2.96,7.08,2.98,10.21.9,3.13-2.08,4.91-5.67,6.12-9.23,6.35-18.63-.25-40.93-15.72-53.1ZM141.88,873.6c13.05,8.74,32.41,7.93,43.2-3.49-24.43-1.79-47.79-14.98-61.94-34.98-.2,14.91,6.39,30.18,18.74,38.46ZM1101.86,583.61c.8-.63,1.56-1.29,2.29-1.95l11.54-19.94c.11-1.13.1-2.2-.04-3.16-2-13.41,5.49-26.43,18.09-31.43l2.55-1.01,188.33-325.48-8.19-4.74-229.55,396.72c5.54-2.62,10.61-5.56,14.98-9.01ZM908.85,729.11c9.36-9.74,12.84-24.72,8.75-37.59-8.95,20.48-25.93,37.32-46.48,46.1l.51,1.73c13.02,3.58,27.86-.5,37.21-10.23ZM1148.02,686.1c-1.14-.83-2.69.13-3.76,1.04-14.32,12.13-30.6,21.93-48.03,28.89,9.86,7.1,23.65,8.31,34.6,3.03,10.95-5.28,18.59-16.82,19.17-28.96l-2.71-2.17c.64-.18,1.52-1.26.73-1.83ZM929.09,673.5c.32-.55.63-1.11.95-1.67-.45.09-.89.19-1.34.26l.4,1.4ZM123.23,832.65l-.14,2.42s.04.05.05.07c.01-.83.03-1.66.08-2.49ZM403.2,970.2c-1.92,11.42,2.85,25.18,6.81,36.25,2.14,6,18.08,28.99,17.08,33.76,3.34-15.91,2.17-73.37-23.89-70.01ZM1356.02,1019.21l500.35-211.62-3.69-8.72-504.75,213.47c2.8,2.2,5.48,4.49,8.08,6.86ZM1309.2,990.14l513.05-257.22-4.24-8.46-521,261.21c4.14,1.35,8.21,2.85,12.2,4.47ZM1220.83,650.14l271.98-332.18-7.32-6-264.11,322.57c.31,5.2.13,10.44-.55,15.61ZM1187.29,765.76l367.13-393.54-6.92-6.46-367.12,393.53c2.33,2.28,4.66,4.49,6.91,6.47ZM1170.3,749.24l353.75-404.65-7.13-6.23-353.44,404.29c2.33,2.19,4.6,4.39,6.81,6.59ZM1200.76,773.76c.06,0,.11,0,.17,0,4.5-.16,14.09-6.98,19.82-11.06,2.01-1.43,4.16-2.56,6.37-3.42l356.75-358.47-6.71-6.68-377.66,379.48c.44.09.86.14,1.25.14ZM1187.52,553.46l206.63-309.17-7.87-5.26-203.51,304.49c1.75,3.21,3.33,6.53,4.74,9.94ZM1257.24,764.87l355.15-334.52-6.49-6.89-356.89,336.16c2.96,1.25,5.74,3.01,8.22,5.26ZM1169.82,526.96l189.92-305.06-8.04-5-190.47,305.94c3.05.89,5.96,2.27,8.59,4.12ZM1195.33,583.19l1.99,1.13c.91.51,1.77,1.08,2.62,1.69l227.89-318.23-7.7-5.51-225.68,315.14c.34,1.92.64,3.84.88,5.78ZM1216.46,611.16l244.27-318.82-7.51-5.76-241.18,314.79c1.71,3.17,3.18,6.44,4.43,9.78ZM1217.21,968.37l544.99-342.94-5.04-8.01-536.16,337.38c-.45,4.46-1.65,9.05-3.79,13.57ZM1325.93,997.99c3.03,1.63,5.95,3.37,8.81,5.16l505.17-233.16-3.97-8.59-511.23,235.96c.4.21.81.42,1.22.63ZM1243.66,976.36l539.71-315.75-4.78-8.17-554.09,324.16c6.38-.32,12.76-.42,19.16-.24ZM1279.17,980.82l524.22-284.37-4.51-8.32-534.58,289.99c5,.7,9.96,1.61,14.88,2.7ZM1272.36,785.27l367.59-324.48-6.26-7.1-365.53,322.66c1.93,2.75,3.33,5.77,4.2,8.92ZM709.17,915.2c.98,6.31,5.97,13.53,11.7,20.33,6.87,17.37,19.96,32.3,36.55,40.94,4.24-19.48,3.14-40.09-3.16-59-2.82-8.48-6.89-16.91-13.82-22.56-6.92-5.65-17.25-7.86-24.97-3.35-5.6,3.27-9.08,9.88-8.6,16.35.19,2.57,1.01,5.06,2.29,7.29ZM1219.05,937.6c.47,1.37.87,2.8,1.2,4.29l519.65-350.92-5.3-7.84-517.33,349.35,1.77,5.13ZM1267.99,810.1c-5.13,7.15-10.75,14.75-17.14,22.2l-.61,3.99,416.27-344.18-6.03-7.3-391.39,323.61c-.35.56-.7,1.13-1.09,1.68ZM1196.84,900.38c-2.79.75-5.63,1.3-8.52,1.69l-21.82,16.89c1.67.38,3.41.37,4.53-.23l4.9-2.61c4.38-2.34,9.23-3.45,14.09-3.39l502.02-388.47-5.79-7.49-441.63,341.74c-8.57,20.18-26.27,36.12-47.77,41.86ZM1211.48,922.56l505.03-365.34-5.55-7.67-507.12,366.85c2.89,1.61,5.47,3.7,7.64,6.16ZM1168.84,674.64c4.07-1,7.26-4.14,9.78-7.49,11.51-15.35,11.93-38.11,1-53.88l-1.83-1.04c-2.17,20.25-8.78,40.01-19.22,57.49,1.22,4.01,6.21,5.91,10.28,4.91ZM1118.22,1422.19c-6.57,8.03-12.89,16.63-19.39,24.97-18.26,23.44-37.93,44.91-68.63,46.51-11.29.59-25.29-4.75-34.46-13.86,4.04,22.68,27.54,37.85,44.87,36.77,35.91-2.25,57.18-36.2,78.3-69.41,4.11-6.46,8.21-12.9,12.41-19.06,17.86-26.23,35.49-54.02,57.97-71.44-29.26,12.18-50,39.79-71.07,65.54ZM1221.62,1401.34c36.05,58.1,121.52-12.04,147.63-44.97,9.02-11.37,19.17-24.69,30.35-37.81,13.39-15.72,28.25-31.15,44.36-42.6l.24-112.34c-16.06-5.62-31.05-1.87-44.6,5.82-11.12,6.32-21.27,15.3-30.21,23.97-24.27,23.53-44.55,60.22-72.4,79.91-18.19,12.86-39.85,23.49-60.76,8.32-34.6-25.09,2.5-73.25,34.13-47.33-6.66-24.26-31.15-35.58-50.77-32.59-36.98,5.64-57.95,41.99-82,67.22-21.85,22.93-54.32,65.91-89.48,65.13-17.09-.38-36.68-16.63-24.16-38.49,10.61-18.51,35.16-15.73,44.16,1.55,4.15-13.08-6.32-27.59-17.37-34.33-51.97-31.68-103.04,51-136.45,78.66-83.92,69.48-204.33,88.1-309.18,66.29-77.72-16.17-132.43-56.21-187.27-110.97-22.7-22.67-57.84-54.57-91.6-33.98-11.05,6.74-21.52,21.25-17.37,34.33,9.01-17.28,33.55-20.06,44.16-1.55,12.52,21.86-7.07,38.11-24.16,38.49-35.15.78-67.62-42.21-89.48-65.13-24.05-25.23-45.02-61.58-82-67.22-19.63-2.99-44.12,8.32-50.77,32.59,31.63-25.93,68.72,22.24,34.13,47.33-20.91,15.16-42.57,4.54-60.77-8.32-27.85-19.7-48.13-56.38-72.4-79.91-11.63-11.28-25.3-23.09-40.52-28.87-10.72-4.07-22.2-5.15-34.29-.92v113.13c12.19,8.83,23.65,19.91,34.29,31.61,14.76,16.23,27.95,33.68,39.32,48.02,26.11,32.93,111.58,103.07,147.63,44.97,20.55-33.11-25.69-61.7-48.81-37.75,7.53-29.21,28.24-47.74,56.79-45.14,43,3.92,68.94,39.24,95.41,71.59,16.06,19.64,30.63,42.6,49.99,57.11,10.81,8.11,23.12,13.59,38.03,14.37,11.5.6,25.81-4.95,34.96-14.37,8.32-8.56,12.39-20.33,6.19-33.62-11.24-24.12-57.06-32.81-70.22-6.33,4.41-20.7,20.07-42.07,39-49.1,97.59-36.3,113.66,77.43,318.88,81.14,212.64,6.18,252.2-112.5,346.03-81.14,19.15,6.4,34.58,28.4,39,49.1-13.16-26.49-58.98-17.8-70.22,6.33-6.19,13.29-2.12,25.05,6.19,33.62,9.15,9.42,23.46,14.97,34.96,14.37,14.92-.78,27.22-6.26,38.03-14.37,19.37-14.52,33.93-37.48,49.99-57.11,26.47-32.36,52.41-67.67,95.41-71.59,28.55-2.61,49.27,15.93,56.79,45.14-23.12-23.95-69.36,4.64-48.81,37.75ZM669.29,1433.07c-.59-.04.02-.38.09-.23.16.07.31.24-.09.23ZM345.42,1493.67c-30.7-1.6-50.37-23.08-68.63-46.51-6.5-8.34-12.82-16.94-19.4-24.97-21.06-25.75-41.81-53.35-71.06-65.54,22.48,17.43,40.11,45.22,57.97,71.44,4.2,6.17,8.3,12.6,12.41,19.06,21.11,33.22,42.39,67.16,78.3,69.41,17.33,1.09,40.83-14.08,44.87-36.77-9.17,9.11-23.16,14.45-34.46,13.86ZM1392.09,1072.01l3.28,8.69,13.94-4.36c.77-.66,1.54-1.31,2.29-1.98l9.18-8.21c9.01-8.05,22.04-9.72,32.78-4.2.21.11.41.23.61.35l444.18-138.96-2.83-9.03-503.52,157.52c.02.06.05.12.07.18ZM-66.1,1134.94c11.75.65,22.74,2.68,33.14,5.8,40.41,12.12,71.8,40.9,102.66,71.04,9.55-41.3,67.19-57.46,102.61-43.27,44.34,17.77,74.18,53.16,102.61,95.19,1.4-8.64,4.45-16.34,8.8-22.99-9.28-12.41-20.69-24.37-27.65-34.15-12.26-17.25-31.99-38.8-49.95-50.54,33.47,20.92,62.67,43.98,89.92,71.23,1.59-1.26,3.24-2.45,4.96-3.56-2.33-3.74-4.53-7.49-6.68-10.75-9.22-13.97-20.26-26.1-31.15-38.81-16.01-18.68-31.72-37.21-50.25-53.34,37.34,30.31,78.36,57.3,110.31,93.78,2.05-.45,4.14-.83,6.27-1.11-11.98-16.4-23.59-33.35-36.15-49.2-13.53-17.09-32.61-30.15-47.95-45.01,23.81,12.52,47.01,31.3,67.83,48.66,17.36,14.47,32.05,30.9,47.06,47.12,5.53,1.26,11.12,3.05,16.68,5.39-10.65-13.98-21.52-27.81-32.89-41.44-15.27-18.32-33.41-34.28-48.06-52.5,7.54,8.81,18.65,14.58,27.67,21.6,11.1,8.63,20.58,18.86,31.16,27.96,19.73,16.98,39.81,35.23,57.59,54.26,17.78,19.03,35.54,38.64,54.06,57.14,25.56,23.68,51,47.63,79.16,64.05,27.88,16.25,54.4,25.96,87.47,27.22-65.22-18.57-126.7-89.86-155.57-121.8-76.54-84.68-195.7-251.14-347.29-246.63-41.96,1.25-97.66,21.02-117.59,73.74,26.11-20.58,75.24-23.67,79.16,8.36,4.6,37.52-42.37,48.14-69.79,46.48-18.98-1.16-37.97-8.35-55.01-18.45-10.25-6.08-19.79-13.21-28.2-20.73,1.39,12.88-5.49,23.39-4.95,35.29ZM631.07,1378.36c-1.8-.3-3.19-.53-4.27-.71,1.39.23,3.01.5,4.27.71ZM546.15,836.85c1.35,2.27,2.71,4.53,4.1,6.76-1.21-2.37-2.59-4.61-4.1-6.76ZM-25.99,1084.42c.59.43,1.18.86,1.78,1.28l.26-.68-2.04-.6ZM1469.26,1085.12l440.58-122.36-2.53-9.12-440.45,122.32c1.29,2.87,2.1,5.96,2.41,9.15ZM6.37,1388.52c-11.37-14.34-24.56-31.78-39.32-48.01-10.64-11.7-22.1-22.78-34.29-31.61-1.89-1.37-3.8-2.69-5.73-3.95,1.93,2.14,3.84,4.35,5.73,6.58,12.4,14.63,23.86,30.96,34.29,46.59,6.63,9.94,12.84,19.58,18.59,28.3,11.34,17.18,33.55,42.54,58.23,60.74,30.39,22.42,64.52,33.99,86.74,6.1-14.92,5.23-32.49,1.76-49.85-6.1-30.66-13.86-60.69-41.37-74.39-58.64ZM1467.92,1103.3c0,.98.9,4.44,1.55,6.97.14.55.3,1.15.45,1.74l450.11-109.48-2.24-9.2-449.82,109.4-.06.56ZM1477.89,1267.47l475.96-21.31-.42-9.46-475.52,21.29-.02,9.48ZM550.79,798.65c-20.74-34.97-26.14-76.58-32.29-116.77-6.14-40.19-14.15-81.88-38.78-114.23-24.62-32.35-70.83-51.9-107.23-33.8,31.05-5.17,58.3,25.35,63.55,56.39,5.25,31.03-4.45,62.34-9.93,93.34-2.06,11.67-10.74,54.63,4.22,60.24,4.05,1.52,7.59,1.01,10.68-.79,4.12-3.52,6.71-9.73,8.18-15.27,1.49-5.62,2.78-11.29,3.89-16.99,2.04-10.5,3.42-21.13,4.15-31.8,1.08-15.9.71-31.9-1.16-47.72,5.13,15.47,8.9,31.49,10.22,47.72.31,3.76.48,7.53.51,11.31.1,12.92-1.5,25.82-1.2,38.74.07,3.26.31,6.5.62,9.73,1.5,15.55,5.67,30.73,11.85,45.16,20.25,33.88,48.73,63.77,57.66,102.05-4.64-38.59-29.65-71.5-41.28-108.58-.61-1.94-1.18-3.9-1.72-5.86,6.3,12.3,13.79,23.84,23.26,33.95,9.92,10.59,21.95,19.61,30.15,31.38-16.79-28.33-30.1-59.68-36.07-91.74,9.16,20.7,23.13,39.28,40.71,53.55ZM700.91,844.47c15.14,5.72,34.04,3.41,48.02-4.67,16.33-9.43,27.33-28.23,25.72-47.02,1.96,22.92-63.39,39.27-73.75,51.7ZM1475.28,1290.43c.67.88,1.26,1.79,1.82,2.72l477.78-5.94-.12-9.47-477.4,5.94c-.43,2.34-1.11,4.61-2.08,6.75ZM1477.95,1241.73l473.56-36.56-.73-9.44-472.81,36.5-.02,9.5ZM1473.02,1136.49l-.07,1.54,455.99-95.42-1.94-9.27-454.13,95.03c.2,2.58.28,5.28.15,8.12ZM1478.06,1189.81l464.79-66.29-1.34-9.37-463.43,66.09-.02,9.56ZM1478.12,1160.33v3.2s458.43-80.57,458.43-80.57l-1.64-9.32-457.48,80.4c.45,2.04.7,4.14.69,6.29ZM1478,1215.87l469.83-51.59-1.03-9.41-468.78,51.47-.02,9.53ZM1063.91,829.73c-.05.33.07.61.26.87l1.01-.69c.49-.63-1.13-.97-1.27-.18ZM1044.24,835.31c-20.13,8.23-37.41,23.24-48.41,42.01l-3.04,2.96c5.75-5.75,13.61-8.75,20.69-12.76,13.1-7.42,23.95-18.78,30.76-32.22ZM1123.76,848.8c-15.08-14.53-37.46-20.94-57.98-16.97,17.85,10.38,37.76,21.01,57.98,16.97ZM1134.1,935.56c-7.46-11.01-9.16-25.06-16.14-36.39-14.52-23.57-49.04-28.34-73.97-16.33-24.94,12.01-41.57,36.44-53.3,61.51-24.8,53.01-33.28,113.62-52.74,168.35-3.49,16.72-7.31,33.41-12.44,49.62,7.18-11.14,15.58-22.27,18.28-27.22,19.92-36.48,42.92-79.09,51.38-120.14-7.73,37.1-15.47,74.2-23.2,111.3,18.07-38.7,47.45-75.07,51.04-118.66-1.6,24.51-3.2,49.02-4.8,73.54,7.92-7.73,15.89-15.42,23.9-23.05,2.81-2.67,5.76-5.56,6.64-9.34.67-2.87.05-5.87-.4-8.78-3.58-22.74,3.39-46.92,18.53-64.27-13.84,1.05-27.19,7.6-36.49,17.92,6.27-17.41,21.22-31.45,38.99-36.62-12.75-4.31-27.65-1.5-37.95,7.15,5.44-10.45,14.85-19.05,26.19-22.28,11.33-3.23,24.46-.56,32.8,7.76,5.35,5.34,8.52,12.54,13.81,17.93,9.32,9.49,24.04,11.94,37.12,9.53,13.08-2.4,24.97-8.96,36.6-15.42,5.04-2.8,10.9-7.56,9.02-13.01-17.55,9.36-41.73,3.37-52.89-13.1ZM956.94,963.1c1.32-11.76,43.77-47.95,29.63-63.26-10.63-11.5-28.68,54.83-29.63,63.26ZM1240.42,790.34c-11.59,8.25-24.09,16.81-38.3,17.32-26.23.93-44.34-24.43-63.77-42.07-51.27-46.55-134.43-43.95-193.52-7.84-59.09,36.11-97.22,98.83-121.9,163.54-24.67,64.71-38.06,133.18-60.78,198.59-12.06,34.7-27.39,69.48-53.85,94.97-26.46,25.49-66.3,39.91-100.93,27.63,34.95,20.62,82.18,18.03,114.68-6.27-32.76,41.56-97.51,53.53-142.96,26.42,16.72,30.43,56.77,38.77,91.46,37.15-25.84,1.2-46.96,5.73-72.89-1.83-12.21-3.56-23.97-8.69-34.87-15.23-9.61-5.77-18.99-18.1-28.93-22.13-28.24-11.43,13.01,33.48,19.25,39.23,18.85,17.38,41.25,30.98,65.54,39.26,25.63,8.74,53.17,11.5,80.07,8.54,27.65-9.65,52.95-27.79,72.06-50.2,33.05-38.75,50.29-88.49,62-138.06,11.71-49.57,18.66-100.38,34.64-148.73-4.4,36.5-8.8,73-13.19,109.5-4.23,35.14-8.56,70.61-17.76,104.68,7.51-16.46,16.03-32.8,20.8-47.79,11.33-35.6,19.8-72.06,26.82-108.74,7.18-37.54,22.21-85.31,19.62-123.49,3.1,45.57,6.16,91.59,3.93,137.1,11.84-53.5,21.78-107.5,41.88-158.36,13.36-33.82,31.93-66.86,60.85-88.9,28.92-22.04,69.91-30.98,102.47-14.79,13.55,6.74,25.25,17.45,39.84,21.47,17.41,4.8,36.42-.94,51.2-11.32,14.78-10.38,26.03-24.96,36.55-39.64ZM1188.08,867.61c14.19-3.79,25.58-16.5,27.79-31.02-17.11,15.66-42.33,21.91-64.77,16.07l-2.16.04c1.12,0-.3-1.97-1.04-1.13-.73.84-.08,2.14.62,3.01,9.16,11.48,25.36,16.82,39.56,13.03ZM1158.52,899.83l-2.29,1.89c.45,1.24.88,2.45,1.29,3.6.73,2.06,1.44,4.06,2.13,5.85l10.83-8.95c-4.06-.47-8.06-1.28-11.96-2.4ZM393.63,553.96c1.59,1.34,3.11,2.77,4.55,4.27.21-.51.43-1.03.66-1.54l-5.2-2.73ZM1065.79,831.83c-.17-.1-.35-.2-.53-.3-.41-.24-.82-.55-1.09-.92l-3.56,2.43c1.71-.49,3.44-.87,5.18-1.21ZM394.27,683.06c-2.87,7.85-3.73,16.7-2.01,24.82,1.18,5.55,3.54,10.75,7.33,15.03,1.12-9.39,4.28-18.5,7.41-27.6,3.89-11.31,7.74-22.6,7.58-34.34-10.69-1.26-16.8,12.51-20.31,22.09ZM303.02,771.91c-25.26,6.5-48.52,18.97-72.91,28.2-24.39,9.23-51.36,15.23-76.47,8.15-20.31-5.72-37.29-19.38-53.65-32.7,10.72,33.68,37.13,61.99,69.98,75.03,29.84,11.84,63.05,11.24,95.03,8.47,31.98-2.77,64.18-7.54,96.02-3.43,31.84,4.1,64.15,18.68,80.91,46.06-19.57-10.01-42.22-13.89-64-10.97,24.69,7.79,47.13,22.62,63.96,42.29-17.51-9.48-37.16-14.97-57.05-15.93,31.42,10.65,50.3,43.6,56.84,76.13,6.54,32.53,3.62,66.17,6.72,99.2,3.21,34.17,12.95,67.72,28.55,98.29-5.09-23.76-6.07-48.41-2.87-72.5,4.89,28.82,19.51,55.9,40.92,75.8-1.19-3.35-2.32-6.72-3.41-10.11-10.92-22.92-16.48-49.12-18.9-74.55-3.28-34.51-2.05-69.54-6.07-103.85-1.42-9.15-2.89-18.29-4.54-27.4,2.03,9.06,3.46,18.21,4.54,27.4,4.3,27.69,8.18,55.46,15.33,82.53,9.51,36.02,25.43,71.43,52.52,97,12.51,11.8,27.71,21.17,43.98,26.84,25.45,3.39,52.03-1.24,74.44-13.82,11.51-6.46,40.96-25.76,22.92-39.02-7.67-5.63-19.29-2.83-28.03-3.69-10.49-1.03-20.76-4.02-30.22-8.66-20.01-9.81-36.21-26.16-49.16-44.3-32.18-45.05-45.43-100.41-61.31-153.45-15.88-53.04-36.69-107.59-78.84-143.49-39.31-33.48-95.23-46.38-145.24-33.52ZM787.95,657.43c-33.34,17.11-67.75,32.54-98.62,53.8-59.99,41.31-104.84,105.29-119.28,176.68-10.94,54.1-3.64,111.99,20.7,161.31,7.11,15.4,16.24,30.04,26.44,43.34,13.76,17.95,30.28,34.89,51.44,42.86,8.58,3.23,18.04,4.6,27.25,3.99-9.57-3.96-18.56-9.74-26.7-16.17-4.03-3.18-7.91-6.55-11.64-10.07-31.19-29.39-51.74-70-56.5-112.62,8.15,36.17,29.41,69.08,58.43,92.09,9.71,7.69,20.28,14.28,31.52,19.52,12.11,5.64,25.33,9.8,38.59,9.59-17.77-4.17-34.14-14.74-46.74-28.18-8.15-8.69-14.91-18.49-20.74-28.88-6.09-10.87-11.17-22.39-15.71-33.99-1-2.55-1.97-5.12-2.87-7.72-2.35-6.82-4.15-13.8-4.23-20.98,2.28,5.51,4.77,10.96,7.47,16.3,4.93,9.77,10.58,19.17,17.08,27.9,5,6.72,10.49,13.06,16.56,18.86,17.48,16.72,39.94,28.83,63.93,31.58.55-1.59,1.08-3.19,1.6-4.81-4.78-1.44-9.37-4.16-13.49-7.06-29.88-21.04-50.78-54.42-56.66-90.49,12,32.18,44.56,55.25,78.67,57.18.99-15-1.08-29.7-8.5-42.75-13.75-24.19-42.88-36.84-55.69-61.54-9.21-17.77-8.46-39-5.41-58.78-13.68,25.63-20.38,54.9-19.45,83.93-9.34-26.43-11.17-55.52-4.95-82.87-10.85,27.26-16.73,56.48-17.26,85.81-9.55-30.13-7.83-63.69,4.74-92.69-16.14,21.96-27.23,47.6-32.2,74.4-6.51-47.52,20.44-94.4,56.68-125.83,36.23-31.43,81.06-50.77,123.88-72.37,42.82-21.61,85.69-47.16,112.99-86.59,33.37-48.2,38.71-112.34,22.47-168.68-1.54-5.35-4.99-11.81-10.49-11.03,2.18,37.41-15.68,73.92-41.35,101.23-25.67,27.31-58.61,46.6-91.95,63.71ZM398.17,558.23c-9.06,21.86-2.32,49.36,16,64.39,6.61-22.24.06-47.75-16-64.39ZM1032.07,699.65c-.71,1.68-1.28,3.43-1.65,5.28.55-1.76,1.1-3.52,1.65-5.28ZM1360.36,1084.01c-19.93-52.72-75.63-72.49-117.59-73.74-138.98-4.13-250.71,135.46-327.32,223.96-6.95,8.02-13.6,15.63-19.97,22.67-28.87,31.94-90.35,103.23-155.57,121.8,33.07-1.26,59.59-10.97,87.47-27.22,28.16-16.41,53.59-40.37,79.16-64.05,18.52-18.49,36.28-38.11,54.06-57.14,17.78-19.03,37.86-37.27,57.59-54.26,10.58-9.11,20.06-19.33,31.16-27.96,9.02-7.02,20.13-12.79,27.67-21.6-14.66,18.23-32.79,34.19-48.06,52.5-11.37,13.64-22.24,27.46-32.89,41.44,5.57-2.35,11.15-4.14,16.68-5.39,15.01-16.22,29.69-32.64,47.06-47.12,20.82-17.36,44.02-36.14,67.83-48.66-15.33,14.87-34.41,27.93-47.95,45.01-12.55,15.85-24.17,32.8-36.15,49.2,2.12.29,4.21.66,6.27,1.11,31.95-36.48,72.98-63.47,110.31-93.78-18.53,16.13-34.25,34.66-50.25,53.34-10.89,12.71-21.93,24.84-31.15,38.81-2.15,3.26-4.35,7.01-6.68,10.75,1.72,1.11,3.38,2.29,4.96,3.56,27.25-27.25,56.46-50.31,89.92-71.23-17.96,11.74-37.69,33.29-49.95,50.54-6.96,9.78-18.37,21.75-27.65,34.15,4.35,6.64,7.4,14.34,8.8,22.99,28.43-42.03,58.26-77.42,102.61-95.19,35.42-14.19,93.06,1.97,102.61,43.27,29.21-28.53,58.89-55.86,96.26-68.97,12.27-4.31,25.36-7.08,39.54-7.86.54-11.9-6.34-22.41-4.95-35.29-10.13,9.06-21.92,17.56-34.6,24.33-15.33,8.19-31.97,13.84-48.61,14.86-27.42,1.67-74.38-8.95-69.79-46.48,3.92-32.03,53.05-28.93,79.16-8.36ZM741.97,1378.36c1.26-.21,2.87-.48,4.27-.71-1.07.18-2.47.41-4.27.71ZM1145.13,984.52c-10.27,3.48-20.82,7-31.65,6.57-10.83-.43-22.17-5.71-26.68-15.57l-1.34,2.15c1.34,13.86,13.23,25.98,27.07,27.57,13.84,1.59,28.17-7.52,32.61-20.71ZM1122.84,610.26c-17.16,13.51-38.46,20.44-59.39,26.7-20.92,6.26-42.36,12.29-60.51,24.43-20.92,13.99-36.39,35.9-42.57,60.29l72.37-24.19c-.22.72-.45,1.44-.67,2.15,4.7-11.03,16.32-18.52,27.48-23.88,12.86-6.17,27.11-11.81,34.82-23.81-3.21,12.42-8.87,24.2-16.55,34.47,18.17-7.91,33.84-21.47,44.28-38.32-.42,12.47-3.81,24.83-9.81,35.78,20.68-14.24,37.88-34.34,45.73-58.19,7.85-23.85,5.52-51.52-8.82-72.13,3.22,21.6-9.19,43.18-26.35,56.7ZM850.6,745.54c-15.28,18.02-35.15,32.11-57.22,40.56l-1.34,3.36c13.55,6.11,30.36,4.26,42.25-4.66,11.89-8.92,18.38-24.54,16.3-39.26ZM59.33,915.23c.1-.24.23-.46.33-.7l-460.18-278.74-4.91,8.1L57.1,924.05c.28-2.98,1-5.96,2.23-8.82ZM109.58,978.02c-10.07-4.85-19.61-10.8-28.37-17.82l-13.32-10.68c-2.38-1.91-4.37-4.13-6-6.57l-483.24-271.78-4.64,8.25L105.9,978.56c1.23-.19,2.45-.37,3.68-.54ZM78.54,898.58l-457.1-297.47-5.16,7.93L68.63,903.43c2.96-2.22,6.32-3.88,9.91-4.85ZM-3,1041.84l-504.81-184.72-3.25,8.89L-8.34,1049.96c1.67-2.78,3.47-5.48,5.33-8.13ZM33.59,1006.21l-510.43-225.13-3.82,8.66L24.74,1012.66c2.84-2.24,5.8-4.38,8.85-6.44ZM90.23,848.82l-421.55-314.87-5.66,7.58L93.84,863.33c-1.62-4.66-2.84-9.52-3.61-14.51ZM13.2,1022.82l-506.14-203.98-3.54,8.78L6.17,1030.2c2.24-2.54,4.59-4.99,7.03-7.37ZM87.48,982.36l-528.51-275.15-4.37,8.4L74.41,986.22c4.29-1.44,8.65-2.73,13.07-3.87ZM58.25,992.51l-517.79-248.66-4.1,8.53L47.44,997.81c3.51-1.88,7.12-3.65,10.82-5.31ZM106.99,900.12c4.59.62,9.28.67,14.04.24-2.2-1.58-4.29-3.3-6.29-5.11l-470.22-328.11-5.42,7.76L104.73,899.82l2.26.31ZM89.3,828.67c-4.97-6.9-9.37-14.22-13.15-21.87l-382.26-305.25-5.91,7.4L89.3,829.41v-.74ZM235.19,761.41L-134.09,325.75l-7.22,6.12,367.34,433.38c3.04-1.24,6.1-2.53,9.16-3.84ZM278.48,743.91L-69.58,274.95l-7.6,5.64,346.35,466.66c3.06-1.16,6.16-2.27,9.31-3.34ZM212.76,770.31L-165.07,352.68l-7.02,6.35,374.9,414.39c3.21-.89,6.53-1.92,9.95-3.11ZM256.74,752.2L-102.25,299.83l-7.41,5.89,357.35,450.31c2.99-1.28,6.01-2.56,9.05-3.83ZM187.16,776.69L-195.17,380.6l-6.81,6.57,376.62,390.18c3.9.14,8.07-.08,12.51-.66ZM62.85,770.72c-1.01-3.17-1.44-6.42-1.36-9.61l-341.34-291.12-6.14,7.2L64.59,776.19l-1.74-5.47ZM74.23,737.75c.2-.14.42-.26.62-.39L-252.59,439.28l-6.37,7L67.81,743.74c1.8-2.27,3.94-4.3,6.42-5.99ZM109.09,739.24l12.32,10.03c6.58,5.36,13.27,10.8,20,15.43L-224.36,409.48l-6.59,6.79L95.26,733.07c4.96.79,9.74,2.84,13.83,6.17ZM-15.12,1062.78l-506.32-166.93-2.96,8.99L-18.84,1071.52c1.14-2.97,2.39-5.88,3.72-8.74ZM1050.54,605.42l3.2-.96c3.12-.93,6.21-1.87,9.25-2.84l225.82-421.1-8.34-4.47-230.32,429.48c.12-.04.25-.08.38-.11ZM-82.55,1346.67l-501.57,34.77.65,9.44,507.62-35.19c-2.16-2.99-4.41-6.01-6.71-9.02ZM-61.17,1376.94c-1.49-2.23-3.09-4.6-4.74-7.03l-514.86,52.44.96,9.42,519.89-52.96c-.42-.62-.82-1.24-1.24-1.87ZM-98.15,1327.68c-1.44-1.6-2.65-3.33-3.68-5.13l-484.32,17.88.35,9.46,491.23-18.13c-1.33-1.55-2.49-2.87-3.58-4.07ZM1420.18,1402.22c-.37.56-.74,1.12-1.11,1.68h0c-.26.39-.53.81-.79,1.2-1.54,2.33-3.28,4.83-5.21,7.47h0c-2.91,3.99-6.25,8.29-9.97,12.78h0c-2.24,2.71-4.62,5.49-7.13,8.32h0c-3.47,3.9-7.17,7.88-11.08,11.86h-.02c-2.61,2.65-5.3,5.3-8.08,7.93h.01c-3.89,3.68-7.93,7.31-12.12,10.84h-.02c-3.01,2.54-6.1,5.02-9.24,7.44h.02c-1.19.92-2.38,1.82-3.58,2.7-3.33,2.45-6.63,4.75-9.92,6.9h0c-3.73,2.43-7.42,4.64-11.09,6.67h.02c-5.45,3.03-10.84,5.61-16.16,7.75h-.02c-5.2,2.08-10.33,3.76-15.39,5h.01c-7.34,1.81-14.53,2.72-21.55,2.72-1.84,0-3.66-.07-5.46-.19l-.05-.02c-13.94-.95-26.68-5.51-37.74-13.47h-.02c-5.65-4.08-10.85-9.03-15.55-14.83h.02c-.16-.19-.33-.38-.49-.58l-10.18-12.78-.06-.08c-2.76-3.47-4.62-7.42-5.58-11.54-.04-.19-.08-.38-.12-.57-.07-.34-.13-.67-.19-1.01-.04-.22-.08-.43-.11-.65-.07-.44-.12-.88-.17-1.32-.03-.33-.06-.67-.08-1-.01-.14-.02-.29-.03-.43-.07-1.21-.06-2.42.02-3.62.18-2.63.71-5.24,1.6-7.76h0c.02-.07.04-.14.07-.21-.89-.95-1.76-1.93-2.62-2.93-.53-.63-1.05-1.27-1.58-1.92-.27-.34-.55-.67-.82-1.02-.67-.86-1.33-1.73-1.97-2.62-.08-.12-.17-.23-.25-.35-.71-.99-1.41-2-2.1-3.04-.51-.76-1.02-1.52-1.51-2.3-1.34-2.16-2.51-4.31-3.57-6.46-.41-.83-.8-1.66-1.17-2.49-.37-.84-.73-1.67-1.06-2.5-.98,1.27-1.96,2.56-2.94,3.86,0,0,0,0,0,0-6.59,8.79-13.04,18.33-19.4,27.72-.22.33-.44.65-.67.98h0c-1.31,1.93-2.61,3.86-3.92,5.78h0c-.24.35-.48.71-.72,1.06-.73,1.07-1.45,2.15-2.17,3.23-.11.16-.21.32-.32.48-.72,1.09-1.45,2.2-2.19,3.33-.02.03-.04.06-.06.09h0c-1.18,1.82-2.39,3.69-3.65,5.65h0c-.06.09-.12.19-.18.29-.18.29-.37.59-.56.88-.87,1.36-1.76,2.76-2.69,4.22l-.51.8c-.42.66-.85,1.33-1.27,2h0c-1.16,1.82-2.33,3.67-3.52,5.52h0c-1.72,2.68-3.48,5.38-5.27,8.09h0c-1.18,1.78-2.37,3.56-3.59,5.34h0c-1.81,2.65-3.67,5.28-5.57,7.9h0c-1.24,1.71-2.5,3.41-3.79,5.09h0c-1.96,2.57-3.98,5.12-6.06,7.61h0c-1.34,1.61-2.71,3.19-4.1,4.75h-.01c-2.19,2.45-4.45,4.84-6.79,7.16h0c-1.48,1.47-2.99,2.91-4.54,4.31h0c-2.51,2.27-5.11,4.44-7.8,6.5h.02c-1.66,1.29-3.36,2.52-5.1,3.7h0c-2.95,2.01-6.01,3.85-9.18,5.55h.02c-1.89,1.03-3.82,1.98-5.8,2.87h0c-3.55,1.6-7.25,2.98-11.09,4.14l.03.02c-2.17.65-4.38,1.23-6.65,1.73h0c-1.01.22-2.03.42-3.06.61-.21.04-.41.07-.62.11-2.16.38-4.37.7-6.62.93,0,0-.01,0-.02,0-1.18.12-2.37.22-3.57.3h0c-.12.01-.24.02-.36.03-1.26.08-2.57.12-3.89.12-1.21,0-2.44-.05-3.66-.12h0c-2.9-.17-5.84-.55-8.8-1.12t0,0c-.98-.19-1.96-.4-2.94-.63-.06-.01-.11-.03-.17-.04-.93-.22-1.86-.46-2.79-.72-.12-.03-.25-.08-.37-.11-.86-.25-1.73-.5-2.59-.78-.19-.06-.39-.13-.58-.2-.8-.26-1.59-.53-2.39-.82-.22-.08-.43-.17-.65-.25-.77-.29-1.55-.59-2.32-.9-12.22-5.03-23.88-13.27-32.91-24.18h0c-1.79-2.16-3.47-4.43-5.03-6.79-.12-.19-.25-.37-.37-.56-.39-.6-.76-1.21-1.14-1.82-.2-.33-.41-.67-.61-1-.33-.56-.65-1.13-.97-1.71-.22-.4-.44-.81-.66-1.22-.29-.55-.58-1.1-.86-1.65-.23-.46-.45-.92-.67-1.38-.25-.53-.51-1.07-.75-1.61-.23-.52-.45-1.05-.67-1.57-.21-.51-.43-1.01-.63-1.52-.36-.93-.71-1.87-1.04-2.82-.2-.56-.37-1.14-.56-1.7-.16-.5-.32-1-.47-1.5-.15-.51-.3-1.03-.44-1.55-.17-.64-.34-1.29-.5-1.94-.1-.41-.2-.82-.3-1.24-.25-1.1-.48-2.2-.68-3.32l-2.62-14.74c-.08-.46-.14-.91-.2-1.37-.03-.27-.07-.54-.09-.81-.04-.42-.08-.83-.11-1.25-.01-.2-.01-.41-.02-.61-.01-.32-.02-.64-.02-.95,0-.24,0-.48,0-.71,0-.29.02-.58.03-.87.01-.23.02-.46.04-.69.03-.46.08-.93.13-1.39.03-.22.06-.44.09-.66.04-.28.08-.57.13-.85.04-.25.09-.49.14-.73.05-.26.11-.52.17-.78.06-.24.11-.48.17-.72.1-.37.2-.74.31-1.11.02-.07.04-.13.06-.2h0s.02-.09.04-.14c-.22-.38-.43-.77-.64-1.16l.03.02c-2.45-4.46-4.33-9.13-5.62-13.91h-.02c-.05-.2-.11-.38-.15-.57l.03.02c-.99-3.8-1.61-7.67-1.86-11.58h-.02c0-.08,0-.15-.01-.23h.02c-.2-3.42-.11-6.88.26-10.33h-.03s0-.05,0-.07h.03c.56-5.07,1.74-10.15,3.58-15.14.02-.05.04-.11.06-.16.26-.69.53-1.38.82-2.07.07-.18.14-.35.22-.53.32-.75.65-1.51,1-2.25.54-1.16,1.12-2.3,1.73-3.43.18-.33.39-.65.57-.98.45-.79.89-1.58,1.37-2.35,0,0,0,0,0,0-3.58,1.36-7.31,2.95-11.26,4.76-.18.08-.37.17-.55.26-.61.28-1.22.56-1.83.85-.37.18-.76.36-1.13.54-.44.21-.87.41-1.31.62-.38.18-.76.37-1.15.56-.45.22-.9.44-1.36.66-.56.28-1.14.56-1.71.85-.28.14-.56.27-.84.42-6.05,3.02-12.61,6.44-19.83,10.26-51.66,27.25-115.96,61.16-230.56,61.17-5.58,0-11.3-.08-17.02-.25-116.96-2.15-180.71-39.48-222.9-64.18-16.13-9.44-28.33-16.37-39.4-20.29,2.41,3.32,4.5,6.83,6.22,10.53.3.63.58,1.27.85,1.91.08.19.16.38.24.58.19.45.38.9.55,1.36.08.21.16.43.24.64.17.44.33.88.49,1.32.07.21.14.41.21.62.16.46.31.92.46,1.38.06.18.12.37.17.55.15.5.3.99.44,1.49.04.14.08.29.12.43.16.56.3,1.12.44,1.69.02.08.04.16.06.24,1.65,6.78,2.13,13.65,1.5,20.4h.01s0,0,0,0h-.01c-.38,4.05-1.15,8.05-2.33,11.97h0c-.03.11-.07.23-.11.35h-.02c-1.38,4.5-3.25,8.87-5.66,13.06.1.32.18.64.27.97.06.22.13.43.18.64.03.11.05.21.07.32.09.39.18.79.26,1.19.04.2.07.4.11.6.05.31.1.62.15.93.03.23.06.45.09.68.03.29.06.59.09.89.03.4.06.8.08,1.19.01.29.03.58.03.87,0,.31,0,.62,0,.93,0,.2,0,.39-.01.59-.01.33-.03.65-.05.98-.01.17-.03.34-.04.51-.03.35-.06.7-.11,1.04h0c-.05.36-.1.72-.16,1.07h0c-.02.14-.04.28-.06.42l-2.22,12.45h0s-.28,1.58-.28,1.58h0s-.13.71-.13.71c-.22,1.21-.46,2.41-.73,3.59-.25,1.07-.52,2.12-.81,3.16-.03.1-.05.2-.08.3-.64,2.29-1.39,4.51-2.23,6.68h0c-.37.95-.76,1.88-1.16,2.81h0c-2.72,6.26-6.25,12-10.35,17.16-.08.1-.16.19-.23.29-.73.91-1.48,1.8-2.24,2.67-.11.13-.22.25-.33.38-.77.86-1.55,1.71-2.35,2.53-.09.1-.19.2-.28.29-.89.91-1.79,1.79-2.71,2.66h0c-4.24,3.96-8.84,7.44-13.66,10.4h0c-1.21.74-2.42,1.45-3.65,2.12,0,0,0,0-.01,0-1.14.62-2.29,1.21-3.44,1.78-.22.11-.44.21-.66.32-.98.47-1.97.92-2.96,1.35-.23.1-.46.2-.69.3-2.39,1.01-4.8,1.9-7.22,2.66-.24.07-.48.14-.71.21-.94.29-1.88.55-2.82.8-.36.09-.71.18-1.07.27-.87.21-1.73.41-2.6.59-.34.07-.67.15-1.01.21-1.17.23-2.34.43-3.51.6h0c-2.72.39-5.4.59-8.05.63-.3,0-.61.02-.91.02h-.12c-1.22,0-2.51-.04-3.78-.12-3.36-.21-6.62-.59-9.78-1.13h0c-2.22-.37-4.4-.82-6.53-1.35l.03-.02c-4.01-.98-7.88-2.21-11.59-3.67h0c-1.95-.76-3.86-1.59-5.74-2.48h.02c-3.31-1.58-6.5-3.32-9.58-5.22h0c-1.72-1.07-3.4-2.18-5.05-3.34h.02c-2.8-1.98-5.5-4.06-8.11-6.27h0c-1.53-1.29-3.03-2.62-4.5-3.98h0c-2.42-2.25-4.76-4.58-7.04-6.98h-.01c-1.38-1.45-2.73-2.94-4.06-4.45h0c-2.15-2.44-4.23-4.94-6.26-7.47h0c-1.27-1.59-2.51-3.19-3.73-4.8h0c-1.95-2.58-3.85-5.19-5.7-7.81h0c-1.19-1.68-2.36-3.37-3.51-5.07h0c-1.82-2.68-3.6-5.37-5.34-8.04h0c-1.18-1.81-2.34-3.61-3.49-5.4-1.46-2.27-2.89-4.53-4.3-6.74l-.54-.85c-1.79-2.81-3.45-5.42-5.05-7.91-.04-.05-.07-.11-.11-.16-.41-.64-.82-1.27-1.23-1.9-.07-.1-.13-.2-.2-.31-.38-.58-.76-1.16-1.13-1.73-.1-.16-.21-.32-.31-.48-1.27-1.93-2.52-3.82-3.79-5.68-1.77-2.6-3.54-5.21-5.31-7.83-1.67-2.47-3.35-4.95-5.04-7.43,0,0,0-.01-.01-.02-3.25-4.78-6.53-9.52-9.85-14.13h0s-.01-.02-.02-.03c-1-1.39-2-2.76-3.01-4.12-.02-.03-.04-.05-.06-.08-1-1.35-2-2.68-3-3.99-.02-.02-.03-.04-.05-.06h0c-.44-.57-.88-1.16-1.32-1.73-.3.75-.63,1.51-.96,2.27-.26.59-.54,1.19-.82,1.78-.13.29-.27.57-.41.86-.24.5-.49,1-.75,1.49-.23.45-.48.91-.72,1.36-.2.37-.4.75-.61,1.12-.49.86-.99,1.72-1.52,2.58-.42.67-.86,1.31-1.29,1.97-2.93,4.46-6.12,8.54-9.56,12.22.21.59.41,1.18.58,1.77,0,.03.02.07.03.1.51,1.76.85,3.55,1.02,5.35.25,2.71.12,5.44-.38,8.12h0c-.37,1.96-.93,3.88-1.7,5.74-.02.05-.04.11-.06.16-.15.37-.32.73-.49,1.09-.08.16-.15.33-.23.49-.16.32-.32.63-.49.95-.11.21-.23.41-.34.61-.16.28-.32.57-.5.85-.14.23-.29.46-.44.68-.17.25-.33.51-.5.76h0c-.34.49-.7.97-1.07,1.44l-8.04,10.1h0s-2.2,2.76-2.2,2.76c-3.57,4.48-7.45,8.45-11.59,11.93h.04c-13.43,11.27-29.67,17.17-47.75,17.17h0c-.88,0-1.76-.02-2.65-.05l.06-.02c-6.68-.21-13.51-1.22-20.48-3.04h-.02c-5.88-1.53-11.86-3.64-17.93-6.32h0c-4.06-1.79-8.16-3.85-12.3-6.15h-.02c-4.65-2.58-9.35-5.49-14.09-8.71h.02c-2.23-1.52-4.46-3.08-6.7-4.73-1.07-.79-2.12-1.61-3.18-2.42h-.03c-4.26-3.25-8.4-6.64-12.41-10.11h0c-2.92-2.54-5.76-5.12-8.53-7.72h-.02c-3.95-3.7-7.73-7.45-11.33-11.19h0c-2.63-2.73-5.13-5.45-7.54-8.14h0c-3.72-4.15-7.19-8.23-10.35-12.13h.01c-2.37-2.94-4.57-5.78-6.59-8.5h-.01c-2.42-3.26-4.58-6.33-6.44-9.14-.84-1.27-1.69-2.57-2.55-3.88h0c-1.52-2.32-3.06-4.67-4.64-7.09-3.05-4.67-6.23-9.53-9.5-14.46v13.9l-516.75,69.56,1.26,9.38,515.49-69.39v14.99l-510.77,85.64,1.57,9.34,509.2-85.38v15.21l-503.47,101.24,1.87,9.28,501.61-100.86v15.47l-494.88,116.26,2.17,9.22,492.72-115.75v15.78l-485,130.6,2.46,9.14,482.53-129.94v16.15l-473.83,144.16,2.75,9.06,471.07-143.32v16.56l-461.39,156.83,3.05,8.96,458.34-155.79v17.04l-447.69,168.5,3.33,8.86,444.36-167.24v17.59l-432.76,179.04,3.62,8.75,429.14-177.54v18.2l-416.59,188.33,3.9,8.62,412.69-186.57v18.9l-399.21,196.24,4.17,8.49,395.04-194.19v19.68l-380.65,202.64,4.45,8.36,381.82-203.26H-18.38l-401.88,230.9,4.71,8.21L.63,1696.39h30.58l-430.57,266.25,4.98,8.05L49.21,1696.39h26.65l-453.2,300.9,5.24,7.88,465.07-308.78h23.38l-470.56,334.81,5.49,7.71,481.4-342.53h20.64l-483.31,367.97,5.73,7.53,493.2-375.5h18.32l-491.99,400.32,5.97,7.34,501.01-407.66h16.35l-497.03,431.84,6.21,7.15,505.25-438.99h14.66l-498.81,462.5,6.44,6.94,506.3-469.44h13.2l-497.65,492.26,6.66,6.73,504.45-498.98h11.94l-493.82,521.08,6.87,6.51,499.99-527.59h10.85l-487.55,548.95,7.08,6.29,493.14-555.24h9.88l-479.07,575.83,7.28,6.05,484.1-581.89h9.05l-468.54,601.7,7.47,5.81,473.07-607.51h8.31l-456.14,626.52,7.65,5.57,460.2-632.09h7.66L-34.32,2346.66l7.83,5.32,445.64-655.59h7.08L-.08,2369.31l8,5.07,429.52-677.99h6.57L34.87,2390.85l8.16,4.8,411.96-699.27h6.12l-390.61,714.86,8.31,4.54,393.09-719.4h5.72l-370.85,734.1,8.45,4.27,373-738.37h5.37l-349.95,752.15,8.58,3.99,351.81-756.15h5.06l-328,769.01,8.71,3.71,329.59-772.72h4.78l-305.11,784.65,8.82,3.43,306.44-788.08h4.53l-281.35,799.05,8.93,3.14,282.46-802.19h4.32l-256.81,812.2,9.03,2.85,257.71-815.05h4.13l-231.57,824.09,9.11,2.56,232.29-826.65h3.97l-205.71,834.71,9.19,2.26,206.27-836.97h3.83l-179.3,844.03,9.26,1.97,179.72-846h3.71l-152.43,852.07,9.32,1.67,152.72-853.73h3.61l-125.15,858.79,9.37,1.36,125.35-860.16h3.53l-97.55,864.21,9.41,1.06,97.67-865.27h3.47l-69.7,868.31,9.43.76,69.76-869.06h3.43l-41.66,871.08,9.45.45,41.69-871.53h3.4l-13.51,872.53,9.47.15,13.51-872.68h9.65l28.37,872.24,9.46-.31-28.36-871.93h3.41l56.5,870.4,9.45-.61-56.46-869.78h3.45l84.5,867.23,9.42-.92-84.41-866.31h3.5l112.29,862.74,9.39-1.22-112.14-861.52h3.57l139.82,856.93,9.34-1.53-139.57-855.41h3.66l167.01,849.82,9.29-1.82-166.65-848h3.77l193.77,841.4,9.22-2.12-193.29-839.28h3.9l220.05,831.69,9.15-2.42-219.41-829.27h4.05l245.77,820.7,9.07-2.71-244.96-817.98h4.23l270.85,808.43,8.98-3.01-269.84-805.43h4.43l295.2,794.91,8.87-3.29-293.98-791.61h4.66l318.75,780.14,8.76-3.58-317.29-776.56h4.92l341.42,764.14,8.64-3.86-339.69-760.28h5.21l363.11,746.92,8.51-4.14-361.1-742.79h5.55l383.74,728.52,8.37-4.41-381.41-724.1h5.93l403.19,708.93,8.23-4.68-400.53-704.25h6.35l421.38,688.19,8.07-4.94-418.36-683.25h6.83l438.2,666.32,7.91-5.2-434.78-661.12h7.37l453.51,643.34,7.74-5.45-449.67-637.88h7.99l467.2,619.27,7.55-5.7-462.9-613.57h8.69l479.12,594.13,7.37-5.94-474.33-588.19h9.48l489.13,567.97,7.17-6.18-483.81-561.79h10.38l497.03,540.79,6.97-6.41-491.15-534.38h11.41l502.65,512.63,6.76-6.63-496.15-506.01h12.58l505.77,483.53,6.54-6.84-498.61-476.69h13.94l506.12,453.5,6.32-7.05-498.26-446.45h15.52l503.44,422.59,6.09-7.25-494.8-415.34h17.35l497.37,390.81,5.85-7.44-487.9-383.37h19.5l487.51,358.22,5.6-7.63-477.13-350.59h22.03l473.4,324.83,5.35-7.8-462.02-317.03h25.03l454.44,290.7,5.1-7.97-441.98-282.72h28.63l429.94,255.84,4.84-8.13-416.27-247.7h32.98l399,220.3,4.58-8.29-383.99-212.01h5.29v-16.86l393.53,200.97,4.3-8.43-397.83-203.17v-18.96l411.75,193.77,4.03-8.57-415.78-195.67v-18.24l428.76,185.11,3.75-8.69-432.52-186.73v-17.59l444.57,175.12,3.47-8.81-448.04-176.48v-17.03l459.14,163.93,3.18-8.91-462.32-165.07v-16.52l472.46,151.67,2.89-9.01-475.36-152.6v-16.08l484.52,138.45,2.6-9.1-487.12-139.19v-15.7l495.31,124.37,2.31-9.18-497.62-124.95v-15.36l504.82,109.56,2.01-9.25-506.82-109.99v-15.08l513.03,94.1,1.71-9.31-514.73-94.41v-14.85l519.93,78.1,1.4-9.36-521.33-78.31v-1.85ZM1479.25,1318.81l475.32,9.45.19-9.46-473.51-9.41c-.13,3.21-.8,6.4-1.99,9.43ZM1460.56,1343.57l492.37,25.71.49-9.45-485.52-25.36c-2.47,2.94-4.92,5.98-7.34,9.1ZM1427.99,1390.29l-.02.03,517.74,60.74,1.1-9.4-513.02-60.19c-1.95,2.95-3.89,5.9-5.8,8.82ZM1443.3,1367.32l506.68,42.91.8-9.43-501.2-42.44c-2.11,2.96-4.21,5.95-6.28,8.97ZM-98.48,1148.09c-.47-1.52-.82-3.1-1.05-4.72l-463.73-88.82-1.78,9.3,464.84,89.04c.44-1.65,1.01-3.26,1.71-4.79ZM-98.12,1117.24l-456.61-102.85-2.08,9.23,457.16,102.98c.35-3.38.9-6.5,1.53-9.36ZM-101.16,1279.16v-7.39l-485.06-13.45-.26,9.46,485.42,13.46c-.05-.69-.1-1.38-.1-2.08ZM-86.96,1066.48l-446.86-131.49-2.67,9.08,443.38,130.46c1.55-3.01,3.63-5.74,6.14-8.06ZM294.57,739.06c2.15-.55,4.32-1.05,6.49-1.53L-36.14,251.14l-7.78,5.39,335.15,483.45c1.11-.31,2.21-.63,3.33-.92ZM-96.2,1091.05s0-.07,0-.11l-448.71-116.42-2.38,9.16,452.17,117.32-1.08-9.95ZM-101.16,1169.23l-469.31-74.27-1.48,9.35,470.79,74.5v-9.58ZM-101.16,1220.82l-479.83-44.43-.87,9.43,480.7,44.51v-9.51ZM-101.16,1246.35l-483.1-29.03-.57,9.45,483.67,29.07v-9.48ZM-101.16,1195.13l-475.23-59.54-1.18,9.39,476.4,59.69v-9.54ZM-103.49,1297.16l-483.36,2.22.04,9.47,481.19-2.21c.17-3.23.88-6.43,2.12-9.48ZM739.52,28.61l-9.46-.38-15.1,377.82c3.16,1.07,6.27,2.31,9.33,3.69l15.23-381.14ZM657.83,510.51c.03.33.04.67.06,1.01,1.3-1.93,2.5-3.93,3.56-6.03l-3.63,5.03ZM751.77,427.99l28.73-396.93-9.44-.68-28.24,390.2c2.89,2.13,5.69,4.4,8.37,6.86.2.18.39.37.58.55ZM789.65,542.44c-1.2,9.71-6.15,26.88-12.55,45.44l-5.48,39.81c.28-.14.57-.29.84-.43,3.14-1.61,6.29-3.26,9.45-4.93L862.12,39.93l-9.38-1.29-63.74,462.81c2.08,13.3,2.36,27.14.64,40.99ZM666.65,401.51l-9.22-373.83-9.46.23,9.26,375.42c3.11-.75,6.26-1.36,9.42-1.81ZM606.28,571.77c-26.35,6.77-48.52,32.23-53.24,61.15,16.18-16.83,32.35-33.65,48.53-50.48l4.71-10.67ZM698.48,27.47l-9.47-.07-2.85,373.19c3.16.15,6.32.44,9.46.88l2.86-374ZM626.09,507.42c-3.66-14.07,7.64-30.27,21.17-32.74,13.53-2.47,26.91,6.98,32.34,20.28,5.43,13.3,3.81,29.4-1.84,43.17-15.85,38.59-56.74,55.99-87.04,82.86-16.15,14.33-56.63,61.2-42.64,85.37,15.92,27.53,33.92-40.94,45.89-54.2-14.99,42.21-3.15,67.22,3.72,106.71-7.72-44.34,7.11-93.67,37.91-126.15-20.67,30.18-24.98,72.18-10.77,104.79-4.93-29.95,2.92-62.74,20.89-87.34-5.73,17.33-5.94,36.4-1.05,53.46.23-15.17,2.64-30.3,8.19-44.46,11.62-29.65,35.32-51.68,54.14-76.85,18.82-25.17,33.51-59.36,22.39-88.06,9.02,15.45,10.74,34.88,10.38,53.58-.3,15.85-1.96,31.74-4.9,47.41,10.96-17.17,18.59-36.65,21.11-56.97,3.96-31.96-5.73-65.65-27.73-85.85-22-20.2-56.36-24.67-82.26-7.99-20.03,12.9-33.34,43.66-19.91,62.98ZM806.68,608.37L902.68,46.34l-9.33-1.59-97.34,569.88c3.58-2.03,7.14-4.11,10.67-6.25ZM776.58,461.81l44.81-426.97-9.41-.99-43.44,413.96c2.96,4.44,5.65,9.13,8.05,14ZM1002.84,546.58l174.98-419.34-8.74-3.65-170.97,409.73c1.94,4.28,3.52,8.72,4.72,13.25ZM324.82,733.89L-1.94,228.42l-7.95,5.14,324.23,501.56c3.48-.5,6.98-.92,10.48-1.23ZM980.19,507.93c2.31,2.2,4.46,4.53,6.47,6.98l153.08-403-8.85-3.36-151.34,398.42c.21.32.44.63.64.96ZM1029.25,612.05l223.15-450.48-8.48-4.2-227.54,459.34c4.31-1.69,8.61-3.23,12.87-4.66ZM1001.51,593.83c-2.33,6.84-5.58,12.7-9.64,17.59l-4.5,9.88c.81,2.83,1.45,5.7,1.89,8.61,2.05-1.24,4.12-2.41,6.2-3.54l219.93-482.57-8.61-3.93-202.82,445.03c-.64,3.01-1.45,5.99-2.45,8.92ZM855.2,570.49c3.54-3.77,6.79-7.67,9.79-11.64l118.07-495.78-9.21-2.19-122.23,513.28c1.21-1.21,2.41-2.42,3.58-3.67ZM912.21,459.51l4.32-.61c.41-.06.82-.09,1.23-.14l105.04-385.39-9.13-2.49-106.23,389.74c1.54-.49,3.12-.88,4.77-1.11ZM964.35,494.13c.12.41.22.82.34,1.23,0,0,0,0,0,0l136.49-397.56-8.95-3.08-132.94,387.23c2.15,3.87,3.85,7.99,5.06,12.17ZM945.07,465.71l117.12-380.76-9.05-2.78-116.55,378.94c3.04,1.19,5.87,2.75,8.49,4.6ZM833.53,590.03L943,54.06l-9.27-1.89-111.56,546.21c3.87-2.68,7.66-5.46,11.36-8.34ZM427.13,495.73L294.28,88.63l-9,2.94,131.3,402.36c3.51.43,7.02,1.03,10.54,1.8ZM369.63,498.44L216.99,116.32l-8.79,3.51,152.62,382.06c2.88-1.3,5.82-2.45,8.81-3.46ZM397.26,493.19L255.42,101.85l-8.9,3.23,141.01,389.05c3.21-.46,6.46-.77,9.73-.93ZM345.98,513.63L179.06,132.03l-8.67,3.79,170.99,390.9c.47-4.68,2.05-9.17,4.61-13.09ZM360.61,570.7c.17-1.87.38-3.74.67-5.6-1.45-.65-2.82-1.45-4.14-2.33l3.47,7.93ZM366.5,734.61c-3.41-5.99-5.9-12.58-7.41-19.7,0,0,0,0,0,0-.75-3.56-1.24-7.21-1.46-10.9L68.57,186.37l-8.26,4.62,303.39,543.32c.93.1,1.87.2,2.8.31ZM349.67,733.27L32.98,206.83l-8.11,4.88,313.69,521.45c3.71-.07,7.41-.03,11.11.11ZM362.42,671.4c.34-.93.76-2.08,1.26-3.37L104.81,167.07l-8.41,4.34,263.23,509.39c.74-3.18,1.67-6.33,2.79-9.4ZM374.1,648.24c1.09-1.5,2.24-2.91,3.42-4.25L141.65,148.95l-8.54,4.07,238.06,499.63c.91-1.47,1.88-2.95,2.94-4.41ZM531.67,592.09c.09-.17.2-.34.29-.51L413.17,56.59l-9.24,2.05,111.14,500.51c6.7,10.57,12.14,21.6,16.61,32.94ZM572.66,549.36L493.91,41.7l-9.35,1.45,79.41,511.9c2.81-2.04,5.71-3.94,8.7-5.69ZM593.88,540.03c.56-1.29,1.17-2.58,1.8-3.86l-2.12-17.33c-6.51-13.13-8.43-28.51-5.41-44.26l-53.56-438.36-9.39,1.15,61.72,505.11c2.29-.89,4.6-1.72,6.96-2.44ZM611.06,429.98l-35.62-397.94-9.43.84,36.51,407.84c2.59-3.79,5.45-7.39,8.54-10.74ZM638.12,410.09l-21.72-380.89-9.45.54,21.98,385.4c2.99-1.86,6.05-3.54,9.19-5.04ZM458.82,507.2l-125.26-430.53-9.09,2.64,122.97,422.66c3.85,1.55,7.64,3.3,11.38,5.22ZM492.38,531.14l-119.18-465.15-9.17,2.35,115.85,452.17c4.37,3.31,8.55,6.86,12.5,10.63ZM550.94,566.19L453.42,48.49l-9.3,1.75,98.87,524.83c2.5-3.11,5.16-6.08,7.96-8.89ZM621.99,570.62c21.92-8.5,37.56-34.36,35.9-59.1-5.93,8.8-13.94,16.01-20.95,23.96-8.55,9.69-16.16,22.16-14.95,35.14Z"/>
    </g>
  </g>
</svg>