<?xml version="1.0" encoding="UTF-8"?>
<svg id="Layer_1" xmlns="http://www.w3.org/2000/svg" version="1.1" viewBox="0 0 295.5 94.6">
  <!-- Generator: Adobe Illustrator 29.3.1, SVG Export Plug-In . SVG Version: 2.1.0 Build 151)  -->
  <defs>
    <style>
      .st0 {
        fill: #010101;
      }

      .st1 {
        fill: #fff;
      }

      .st2 {
        fill: #f53603;
      }
    </style>
  </defs>
  <rect class="st0" x="-4.9" y="-2.8" width="304.4" height="102.3"/>
  <g>
    <path class="st1" d="M69.1,53c-.5,0-.9.4-.9.9s.4.9.9.9.9-.4.9-.9-.4-.9-.9-.9Z"/>
    <path class="st1" d="M69.1,56.8c-.5,0-.9.4-.9.9s.4.9.9.9.9-.4.9-.9-.4-.9-.9-.9Z"/>
    <path class="st1" d="M69.1,49.1c-.5,0-.9.4-.9.9s.4.9.9.9.9-.4.9-.9-.4-.9-.9-.9Z"/>
    <path class="st1" d="M69.1,60.6c-.5,0-.9.4-.9.9s.4.9.9.9.9-.4.9-.9-.4-.9-.9-.9Z"/>
    <path class="st1" d="M69.1,73.7c.5,0,.9-.4.9-.9s-.4-.9-.9-.9-.9.4-.9.9.4.9.9.9Z"/>
    <path class="st1" d="M69.1,45.3c-.5,0-.9.4-.9.9s.4.9.9.9.9-.4.9-.9-.4-.9-.9-.9Z"/>
    <path class="st1" d="M69.1,64.4c-.5,0-.9.4-.9.9s.4.9.9.9.9-.4.9-.9-.4-.9-.9-.9Z"/>
    <path class="st1" d="M69.1,68.2c-.5,0-.9.4-.9.9s.4.9.9.9.9-.4.9-.9-.4-.9-.9-.9Z"/>
    <path class="st1" d="M69.1,22.5c-.5,0-.9.4-.9.9s.4.9.9.9.9-.4.9-.9-.4-.9-.9-.9Z"/>
    <path class="st1" d="M69.1,18.7c-.5,0-.9.4-.9.9s.4.9.9.9.9-.4.9-.9-.4-.9-.9-.9Z"/>
    <path class="st1" d="M69.1,41.5c-.5,0-.9.4-.9.9s.4.9.9.9.9-.4.9-.9-.4-.9-.9-.9Z"/>
    <path class="st1" d="M69.1,26.3c-.5,0-.9.4-.9.9s.4.9.9.9.9-.4.9-.9-.4-.9-.9-.9Z"/>
    <path class="st1" d="M69.1,37.7c-.5,0-.9.4-.9.9s.4.9.9.9.9-.4.9-.9-.4-.9-.9-.9Z"/>
    <path class="st1" d="M69.1,30.1c-.5,0-.9.4-.9.9s.4.9.9.9.9-.4.9-.9-.4-.9-.9-.9Z"/>
    <path class="st1" d="M69.1,33.9c-.5,0-.9.4-.9.9s.4.9.9.9.9-.4.9-.9-.4-.9-.9-.9Z"/>
  </g>
  <path class="st2" d="M27.1,69.3c2.9,3,7.2,4.7,11.7,4.8h.3c4.1,0,8-1.6,11-4.3,2.9-2.7,4.5-6.5,4.4-10.8,0,0,0-.2-.1-.2l-5.8-3.5c-.1,0-.3,0-.4,0,0,0-.1.2,0,.3,1.2,3.9,0,8.1-3,10.6-3.5,2.8-9.5,2.7-12.7-.3-2.6-2.5-3.7-6.1-2.6-9.2h0c0-.1.1,0,.1,0,1.9.6,6.5.9,9.6,0,0,0,.2,0,.2-.2s0-.2-.2-.2c-6.9-2.9-11.6-6.2-14.7-10.4,0,0-.2-.1-.3-.1s0,0-.1,0c-.1,0-.2.2-.2.3.2,1.3.3,2,.2,3.1,0,1.6-.4,3.2-.7,4.7-.4,1.9-.7,3.5-.8,5.3,0,3.9,1.4,7.6,4.1,10.4h0Z"/>
  <path class="st1" d="M25.6,35.4c1,3.8,3.6,7.2,8,10.3,1.3.9,2.4,1.6,3.4,2.1,0,0,.2,0,.2,0h0c0,0,.2,0,.2-.1l2.8-3.7h0s13.3,7.7,13.3,7.7c0,0,.1,0,.2,0h0c0,0,.2,0,.2,0,.1-.1.1-.3,0-.4l-15-14.8c0,0-.2,0-.2,0h0c0,0-.2,0-.3,0l-2.7,3.2h0c-2-1.8-3.9-3.6-4.5-6.1-.5-2.1-.2-4.1.8-5.7,1-1.5,2.6-2.5,4.5-2.9,5.3-1,8.6,3.3,10.4,7.1.9,1.8,2.1,3.9,3.1,5.1.4.5.8,1,1.3,1.5,0,0,.3.1.4,0,.1,0,.2-.2.2-.3-2-7.7-.8-15.8-.4-18.1,0-.1,0-.2-.1-.3-.1,0-.2,0-.3,0-.2.1-1.1.7-2.3.8-1.8.2-3.3-.4-4.9-1h0c-.2-.1-.5-.2-.7-.3-4.7-1.7-10.3-.7-13.9,2.4-3.7,3.2-5,8-3.6,13.3h0Z"/>
  <path class="st1" d="M110.2,60.6h1.4v5.3h4v1.2h-5.4s0-6.6,0-6.6Z"/>
  <path class="st1" d="M119,60.6h1.4v6.6h-1.4s0-6.6,0-6.6Z"/>
  <path class="st1" d="M125.8,61.8h-2.4v-1.2h6.1v1.2h-2.4v5.4h-1.4s0-5.4,0-5.4Z"/>
  <path class="st1" d="M132.6,60.6h1.4v2.8h3.4v-2.8h1.4v6.6h-1.4v-2.7h-3.4v2.7h-1.4s0-6.6,0-6.6Z"/>
  <path class="st1" d="M142.4,60.6h1.4v6.6h-1.4s0-6.6,0-6.6Z"/>
  <path class="st1" d="M153.3,60.6v5.4c0,.6-.4,1.2-1.2,1.2h-3.6c-.6,0-1.2-.3-1.2-1.1v-5.5h1.4v5.4h3.2v-5.3h1.4Z"/>
  <path class="st1" d="M163.5,63.7c0-.3,0-.8,0-1.3-.2.6-.4,1.1-.5,1.4l-1.4,3.4h-1.6l-1.4-3.4c-.1-.3-.4-.9-.6-1.5,0,.6,0,1.1,0,1.4v3.5h-1.3v-6.6h1.8l2.2,5.2h0l2.1-5.2h1.8v6.6h-1.3v-3.5h0Z"/>
  <path class="st1" d="M177.9,67.2h-4.7v-6.6h4.7c.8,0,1.1.4,1.1,1.1v1.3c0,.3,0,.6-.3.8.4.1.5.4.5.9v1.4c0,.6-.4,1.1-1.2,1.1h0ZM177.6,63.3v-1.6h-2.9v1.6h2.9ZM177.8,66v-1.7h-3.1v1.7h3.1Z"/>
  <path class="st1" d="M186.9,65.8h-2.9l-.4,1.3h-1.5l2.3-6.6h2.1l2.3,6.6h-1.5l-.4-1.3h0ZM184.4,64.7h2.2l-1-3h-.1l-1,3h0Z"/>
  <path class="st1" d="M192.9,61.8h-2.4v-1.2h6.1v1.2h-2.4v5.4h-1.4v-5.4Z"/>
  <path class="st1" d="M201.7,61.8h-2.4v-1.2h6.1v1.2h-2.4v5.4h-1.4v-5.4Z"/>
  <path class="st1" d="M208.5,60.6h5.4v1.2h-4v1.5h2.8v1.1h-2.8v1.6h4v1.2h-5.4v-6.6Z"/>
  <path class="st1" d="M217.1,67.2v-6.6h4.9c.7,0,1,.4,1,1.1v2.5c0,.6-.3,1-.9,1l.8,2h-1.4l-.8-2h-2.2v2h-1.4ZM221.7,64.1v-2.2h-3.1v2.2h3.1Z"/>
  <path class="st1" d="M226.5,60.6h1.4v6.6h-1.4s0-6.6,0-6.6Z"/>
  <path class="st1" d="M231.5,60.6h5.4v1.2h-4v1.5h2.8v1.1h-2.8v1.6h4v1.2h-5.4v-6.6Z"/>
  <path class="st1" d="M246,66c0,.7-.4,1.2-1.2,1.2h-3.5c-.6,0-1.2-.3-1.2-1.1v-1.1h1.4v1.1h3.2v-1.2l-3.9-1c-.5-.1-.7-.4-.7-1v-1.3c0-.7.4-.9,1.1-.9h3.8c.9,0,1.1.5,1.1,1.3v.8h-1.4v-1h-3.2v1.1l3.9,1c.5.1.6.4.6,1v1.2h0Z"/>
  <polygon class="st2" points="103 62.1 103 66.2 87.3 64.1 103 62.1"/>
  <polygon class="st2" points="253.6 62.1 253.6 66.2 269.2 64.1 253.6 62.1"/>
  <path class="st1" d="M170.7,25.7h-.1.1ZM203.6,47.4l5.5-21.7h-6.5l-6.9,27.4h21.5l1.4-5.5h-15,0ZM267.2,25.7l-2.9,11.3h-13.6,0c0-.1,2.8-11.3,2.8-11.3h-38.1l-1.3,5.1h14.2,0c0,.1-5.6,22.4-5.6,22.4h6.6l5.6-22.4h10.8,0c0,.1-5.6,22.4-5.6,22.4h6.5l2.8-10.9h13.7,0c0,.1-2.7,10.9-2.7,10.9h6.5l6.9-27.4h-6.5,0ZM179.2,25.7l-13.2,22.3h-21.6,0c0-.1,1.6-6.3,1.6-6.3h15.1l2.9-5h-16.8,0c0-.1,1.4-5.9,1.4-5.9h18.7l3-5.1h-75.3c-1.9,0-4.4.7-5.2,4.2l-1.2,4.8c-.7,2.7-.2,3.8,1.9,4.4l15.5,4.1-1.2,4.9h-13l.7-2.6-6.1-1.5-.3,1.3-2,8h20.6c3.4,0,5.9-1.9,6.7-5.1l1.2-4.8c.8-3.2.5-4.1-1.8-4.7l-15.5-4.1.9-3.6h28.4,0c0,.1-5.6,22.3-5.6,22.3h6.6l5.6-22.3h11,0c0,.1-5.6,22.3-5.6,22.3h33.1l3.1-5.3h12.2c0,0,.3,5.3.3,5.3h6.7l-2.2-27.4h-10.6,0ZM175.6,42.9l7-12.2h1.2v.3s.8,11.9.8,11.9h-9Z"/>
</svg>