<?xml version="1.0" encoding="UTF-8" standalone="no"?>
<!DOCTYPE svg PUBLIC "-//W3C//DTD SVG 1.1//EN" "http://www.w3.org/Graphics/SVG/1.1/DTD/svg11.dtd">
<svg width="100%" height="100%" viewBox="0 0 1375 1700" version="1.1" xmlns="http://www.w3.org/2000/svg" xmlns:xlink="http://www.w3.org/1999/xlink" xml:space="preserve" xmlns:serif="http://www.serif.com/" style="fill-rule:evenodd;clip-rule:evenodd;stroke-linejoin:round;stroke-miterlimit:2;">
    <g id="Layer_1-2">
        <g>
            <clipPath id="_clip1">
                <path d="M1374.75,0L1374.75,3958.93L0,3958.93L0,0"/>
            </clipPath>
            <g clip-path="url(#_clip1)">
                <clipPath id="_clip2">
                    <rect x="0" y="27.4" width="1374.75" height="1669.55"/>
                </clipPath>
                <g clip-path="url(#_clip2)">
                    <path d="M272.18,970.88L274.98,974.39C283.33,991.03 299.08,1003.78 317.1,1008.48C315.2,1001.54 311.85,994.99 307.29,989.42C298.69,978.9 285.72,972.05 272.18,970.88ZM102.43,933.73C121.93,949.37 146.66,958.36 171.65,958.9C190.96,959.32 209.98,954.87 229.02,951.61C248.05,948.35 267.85,946.3 286.48,951.39C305.11,956.48 322.46,970.11 327.02,988.88C326.23,972.29 319.1,956.09 307.42,944.29C327.68,951.63 343.46,970.17 347.47,991.34C347.51,975.98 344.26,960.62 338.01,946.59C367.16,988.57 363.56,1044.27 358.79,1095.16C363.9,1086.11 369.01,1077.07 374.12,1068.02C366.68,1081.19 389.92,1123.66 396.47,1135.13C404.91,1149.92 423.1,1180.78 440.2,1184.98C443.01,1172.54 431.3,1158.42 426.46,1147.71C418.57,1130.23 412.88,1111.81 408.41,1093.18C399.27,1055.03 394.95,1015.81 385.01,977.86C374.92,939.35 355.33,898.62 318.1,884.55C282.76,871.2 243.49,886.19 209.61,902.9C175.73,919.61 139.87,938.81 102.44,933.72L102.43,933.73ZM183.16,973.25L190.48,977.76C197.75,987.08 210.19,992.09 221.89,990.4C233.59,988.71 244.11,980.4 248.45,969.41C227.52,976.35 204.76,977.69 183.16,973.26L183.16,973.25ZM1386.09,1058.5L1885.62,884.32L1882.51,875.38L1381.47,1050.09C1383.12,1052.83 1384.65,1055.64 1386.1,1058.5L1386.09,1058.5ZM1331.75,1447.16C1356.43,1428.95 1378.64,1403.6 1389.98,1386.42C1393.06,1381.76 1396.27,1376.83 1399.6,1371.73C1412.56,1351.9 1427.42,1329.54 1443.89,1310.31C1445.45,1308.5 1447.01,1306.7 1448.59,1304.95C1447.01,1305.98 1445.45,1307.06 1443.89,1308.17C1427.8,1319.62 1412.97,1335.02 1399.6,1350.72C1388.42,1363.84 1378.27,1377.15 1369.25,1388.52C1355.55,1405.79 1325.52,1433.3 1294.86,1447.16C1277.5,1455.01 1259.93,1458.49 1245.01,1453.26C1267.23,1481.15 1301.36,1469.58 1331.75,1447.16ZM1373.11,1037.82L1871.62,845.72L1868.21,836.89L1366.8,1030.11C1369.01,1032.61 1371.1,1035.18 1373.11,1037.82ZM930.03,671.83C941.03,669.56 950.64,661.28 954.38,650.68C958.27,639.64 955.66,626.57 947.81,617.88C945.51,636.8 939.42,655.25 930.03,671.83ZM953.68,529.78L951.08,525.33C954.7,547.07 955.37,569.29 953.07,591.21C955.38,594.17 960.15,594.19 963.28,592.11C966.41,590.03 968.19,586.44 969.4,582.88C975.75,564.25 969.15,541.95 953.68,529.78ZM141.88,873.6C154.93,882.34 174.29,881.53 185.08,870.11C160.65,868.32 137.29,855.13 123.14,835.13C122.94,850.04 129.53,865.31 141.88,873.59L141.88,873.6ZM1101.86,583.61C1102.66,582.98 1103.42,582.32 1104.15,581.66L1115.69,561.72C1115.8,560.59 1115.79,559.52 1115.65,558.56C1113.65,545.15 1121.14,532.13 1133.74,527.13L1136.29,526.12L1324.62,200.64L1316.43,195.9L1086.88,592.62C1092.42,590 1097.49,587.06 1101.86,583.61ZM908.85,729.11C918.21,719.37 921.69,704.39 917.6,691.52C908.65,712 891.67,728.84 871.12,737.62L871.63,739.35C884.65,742.93 899.49,738.85 908.84,729.12L908.85,729.11ZM1148.02,686.1C1146.88,685.27 1145.33,686.23 1144.26,687.14C1129.94,699.27 1113.66,709.07 1096.23,716.03C1106.09,723.13 1119.88,724.34 1130.83,719.06C1141.78,713.78 1149.42,702.24 1150,690.1L1147.29,687.93C1147.93,687.75 1148.81,686.67 1148.02,686.1ZM929.09,673.5C929.41,672.95 929.72,672.39 930.04,671.83C929.59,671.92 929.15,672.02 928.7,672.09L929.1,673.49L929.09,673.5ZM123.23,832.65L123.09,835.07C123.09,835.07 123.13,835.12 123.14,835.14C123.15,834.31 123.17,833.48 123.22,832.65L123.23,832.65ZM403.2,970.2C401.28,981.62 406.05,995.38 410.01,1006.45C412.15,1012.45 428.09,1035.44 427.09,1040.21C430.43,1024.3 429.26,966.84 403.2,970.2ZM1356.02,1019.21L1856.37,807.59L1852.68,798.87L1347.93,1012.34C1350.73,1014.54 1353.41,1016.83 1356.01,1019.2L1356.02,1019.21ZM1309.2,990.14L1822.25,732.92L1818.01,724.46L1297.01,985.67C1301.15,987.02 1305.22,988.52 1309.21,990.14L1309.2,990.14ZM1220.83,650.14L1492.81,317.96L1485.49,311.96L1221.38,634.53C1221.69,639.73 1221.51,644.97 1220.83,650.14ZM1187.29,765.76L1554.42,372.22L1547.5,365.76L1180.38,759.29C1182.71,761.57 1185.04,763.78 1187.29,765.76ZM1170.3,749.24L1524.05,344.59L1516.92,338.36L1163.48,742.65C1165.81,744.84 1168.08,747.04 1170.29,749.24L1170.3,749.24ZM1200.76,773.76L1200.93,773.76C1205.43,773.6 1215.02,766.78 1220.75,762.7C1222.76,761.27 1224.91,760.14 1227.12,759.28L1583.87,400.81L1577.16,394.13L1199.5,773.61C1199.94,773.7 1200.36,773.75 1200.75,773.75L1200.76,773.76ZM1187.52,553.46L1394.15,244.29L1386.28,239.03L1182.77,543.52C1184.52,546.73 1186.1,550.05 1187.51,553.46L1187.52,553.46ZM1257.24,764.87L1612.39,430.35L1605.9,423.46L1249.01,759.62C1251.97,760.87 1254.75,762.63 1257.23,764.88L1257.24,764.87ZM1169.82,526.96L1359.74,221.9L1351.7,216.9L1161.23,522.84C1164.28,523.73 1167.19,525.11 1169.82,526.96ZM1195.33,583.19L1197.32,584.32C1198.23,584.83 1199.09,585.4 1199.94,586.01L1427.83,267.78L1420.13,262.27L1194.45,577.41C1194.79,579.33 1195.09,581.25 1195.33,583.19ZM1216.46,611.16L1460.73,292.34L1453.22,286.58L1212.04,601.37C1213.75,604.54 1215.22,607.81 1216.47,611.15L1216.46,611.16ZM1217.21,968.37L1762.2,625.43L1757.16,617.42L1221,954.8C1220.55,959.26 1219.35,963.85 1217.21,968.37ZM1325.93,997.99C1328.96,999.62 1331.88,1001.36 1334.74,1003.15L1839.91,769.99L1835.94,761.4L1324.71,997.36C1325.11,997.57 1325.52,997.78 1325.93,997.99ZM1243.66,976.36L1783.37,660.61L1778.59,652.44L1224.5,976.6C1230.88,976.28 1237.26,976.18 1243.66,976.36ZM1279.17,980.82L1803.39,696.45L1798.88,688.13L1264.3,978.12C1269.3,978.82 1274.26,979.73 1279.18,980.82L1279.17,980.82ZM1272.36,785.27L1639.95,460.79L1633.69,453.69L1268.16,776.35C1270.09,779.1 1271.49,782.12 1272.36,785.27ZM709.17,915.2C710.15,921.51 715.14,928.73 720.87,935.53C727.74,952.9 740.83,967.83 757.42,976.47C761.66,956.99 760.56,936.38 754.26,917.47C751.44,908.99 747.37,900.56 740.44,894.91C733.52,889.26 723.19,887.05 715.47,891.56C709.87,894.83 706.39,901.44 706.87,907.91C707.06,910.48 707.88,912.97 709.16,915.2L709.17,915.2ZM1219.05,937.6C1219.52,938.97 1219.92,940.4 1220.25,941.89L1739.9,590.97L1734.6,583.13L1217.27,932.48L1219.04,937.61L1219.05,937.6ZM1267.99,810.1C1262.86,817.25 1257.24,824.85 1250.85,832.3L1250.24,836.29L1666.51,492.11L1660.48,484.81L1269.09,808.42C1268.74,808.98 1268.39,809.55 1268,810.1L1267.99,810.1ZM1196.84,900.38C1194.05,901.13 1191.21,901.68 1188.32,902.07L1166.5,918.96C1168.17,919.34 1169.91,919.33 1171.03,918.73L1175.93,916.12C1180.31,913.78 1185.16,912.67 1190.02,912.73L1692.04,524.26L1686.25,516.77L1244.62,858.51C1236.05,878.69 1218.35,894.63 1196.85,900.37L1196.84,900.38ZM1211.48,922.56L1716.51,557.22L1710.96,549.55L1203.84,916.4C1206.73,918.01 1209.31,920.1 1211.48,922.56ZM1168.84,674.64C1172.91,673.64 1176.1,670.5 1178.62,667.15C1190.13,651.8 1190.55,629.04 1179.62,613.27L1177.79,612.23C1175.62,632.48 1169.01,652.24 1158.57,669.72C1159.79,673.73 1164.78,675.63 1168.85,674.63L1168.84,674.64ZM1118.22,1422.19C1111.65,1430.22 1105.33,1438.82 1098.83,1447.16C1080.57,1470.6 1060.9,1492.07 1030.2,1493.67C1018.91,1494.26 1004.91,1488.92 995.74,1479.81C999.78,1502.49 1023.28,1517.66 1040.61,1516.58C1076.52,1514.33 1097.79,1480.38 1118.91,1447.17C1123.02,1440.71 1127.12,1434.27 1131.32,1428.11C1149.18,1401.88 1166.81,1374.09 1189.29,1356.67C1160.03,1368.85 1139.29,1396.46 1118.22,1422.21L1118.22,1422.19ZM1221.62,1401.34C1257.67,1459.44 1343.14,1389.3 1369.25,1356.37C1378.27,1345 1388.42,1331.68 1399.6,1318.56C1412.99,1302.84 1427.85,1287.41 1443.96,1275.96L1444.2,1163.62C1428.14,1158 1413.15,1161.75 1399.6,1169.44C1388.48,1175.76 1378.33,1184.74 1369.39,1193.41C1345.12,1216.94 1324.84,1253.63 1296.99,1273.32C1278.8,1286.18 1257.14,1296.81 1236.23,1281.64C1201.63,1256.55 1238.73,1208.39 1270.36,1234.31C1263.7,1210.05 1239.21,1198.73 1219.59,1201.72C1182.61,1207.36 1161.64,1243.71 1137.59,1268.94C1115.74,1291.87 1083.27,1334.85 1048.11,1334.07C1031.02,1333.69 1011.43,1317.44 1023.95,1295.58C1034.56,1277.07 1059.11,1279.85 1068.11,1297.13C1072.26,1284.05 1061.79,1269.54 1050.74,1262.8C998.77,1231.12 947.7,1313.8 914.29,1341.46C830.37,1410.94 709.96,1429.56 605.11,1407.75C527.39,1391.58 472.68,1351.54 417.84,1296.78C395.14,1274.11 360,1242.21 326.24,1262.8C315.19,1269.54 304.72,1284.05 308.87,1297.13C317.88,1279.85 342.42,1277.07 353.03,1295.58C365.55,1317.44 345.96,1333.69 328.87,1334.07C293.72,1334.85 261.25,1291.86 239.39,1268.94C215.34,1243.71 194.37,1207.36 157.39,1201.72C137.76,1198.73 113.27,1210.04 106.62,1234.31C138.25,1208.38 175.34,1256.55 140.75,1281.64C119.84,1296.8 98.18,1286.18 79.98,1273.32C52.13,1253.62 31.85,1216.94 7.58,1193.41C-4.05,1182.13 -17.72,1170.32 -32.94,1164.54C-43.66,1160.47 -55.14,1159.39 -67.23,1163.62L-67.23,1276.75C-55.04,1285.58 -43.58,1296.66 -32.94,1308.36C-18.18,1324.59 -4.99,1342.04 6.38,1356.38C32.49,1389.31 117.96,1459.45 154.01,1401.35C174.56,1368.24 128.32,1339.65 105.2,1363.6C112.73,1334.39 133.44,1315.86 161.99,1318.46C204.99,1322.38 230.93,1357.7 257.4,1390.05C273.46,1409.69 288.03,1432.65 307.39,1447.16C318.2,1455.27 330.51,1460.75 345.42,1461.53C356.92,1462.13 371.23,1456.58 380.38,1447.16C388.7,1438.6 392.77,1426.83 386.57,1413.54C375.33,1389.42 329.51,1380.73 316.35,1407.21C320.76,1386.51 336.42,1365.14 355.35,1358.11C452.94,1321.81 469.01,1435.54 674.23,1439.25C886.87,1445.43 926.43,1326.75 1020.26,1358.11C1039.41,1364.51 1054.84,1386.51 1059.26,1407.21C1046.1,1380.72 1000.28,1389.41 989.04,1413.54C982.85,1426.83 986.92,1438.59 995.23,1447.16C1004.38,1456.58 1018.69,1462.13 1030.19,1461.53C1045.11,1460.75 1057.41,1455.27 1068.22,1447.16C1087.59,1432.64 1102.15,1409.68 1118.21,1390.05C1144.68,1357.69 1170.62,1322.38 1213.62,1318.46C1242.17,1315.85 1262.89,1334.39 1270.41,1363.6C1247.29,1339.65 1201.05,1368.24 1221.6,1401.35L1221.62,1401.34ZM669.29,1433.07C668.7,1433.03 669.31,1432.69 669.38,1432.84C669.54,1432.91 669.69,1433.08 669.29,1433.07ZM345.42,1493.67C314.72,1492.07 295.05,1470.59 276.79,1447.16C270.29,1438.82 263.97,1430.22 257.39,1422.19C236.33,1396.44 215.58,1368.84 186.33,1356.65C208.81,1374.08 226.44,1401.87 244.3,1428.09C248.5,1434.26 252.6,1440.69 256.71,1447.15C277.82,1480.37 299.1,1514.31 335.01,1516.56C352.34,1517.65 375.84,1502.48 379.88,1479.79C370.71,1488.9 356.72,1494.24 345.42,1493.65L345.42,1493.67ZM1392.09,1072.01L1395.37,1080.7L1409.31,1076.34C1410.08,1075.68 1410.85,1075.03 1411.6,1074.36L1420.78,1066.15C1429.79,1058.1 1442.82,1056.43 1453.56,1061.95C1453.77,1062.06 1453.97,1062.18 1454.17,1062.3L1898.35,923.34L1895.52,914.31L1392,1071.83C1392.02,1071.89 1392.05,1071.95 1392.07,1072.01L1392.09,1072.01ZM-66.1,1134.94C-54.35,1135.59 -43.36,1137.62 -32.96,1140.74C7.45,1152.86 38.84,1181.64 69.7,1211.78C79.25,1170.48 136.89,1154.32 172.31,1168.51C216.65,1186.28 246.49,1221.67 274.92,1263.7C276.32,1255.06 279.37,1247.36 283.72,1240.71C274.44,1228.3 263.03,1216.34 256.07,1206.56C243.81,1189.31 224.08,1167.76 206.12,1156.02C239.59,1176.94 268.79,1200 296.04,1227.25C297.63,1225.99 299.28,1224.8 301,1223.69C298.67,1219.95 296.47,1216.2 294.32,1212.94C285.1,1198.97 274.06,1186.84 263.17,1174.13C247.16,1155.45 231.45,1136.92 212.92,1120.79C250.26,1151.1 291.28,1178.09 323.23,1214.57C325.28,1214.12 327.37,1213.74 329.5,1213.46C317.52,1197.06 305.91,1180.11 293.35,1164.26C279.82,1147.17 260.74,1134.11 245.4,1119.25C269.21,1131.77 292.41,1150.55 313.23,1167.91C330.59,1182.38 345.28,1198.81 360.29,1215.03C365.82,1216.29 371.41,1218.08 376.97,1220.42C366.32,1206.44 355.45,1192.61 344.08,1178.98C328.81,1160.66 310.67,1144.7 296.02,1126.48C303.56,1135.29 314.67,1141.06 323.69,1148.08C334.79,1156.71 344.27,1166.94 354.85,1176.04C374.58,1193.02 394.66,1211.27 412.44,1230.3C430.22,1249.33 447.98,1268.94 466.5,1287.44C492.06,1311.12 517.5,1335.07 545.66,1351.49C573.54,1367.74 600.06,1377.45 633.13,1378.71C567.91,1360.14 506.43,1288.85 477.56,1256.91C401.02,1172.23 281.86,1005.77 130.27,1010.28C88.31,1011.53 32.61,1031.3 12.68,1084.02C38.79,1063.44 87.92,1060.35 91.84,1092.38C96.44,1129.9 49.47,1140.52 22.05,1138.86C3.07,1137.7 -15.92,1130.51 -32.96,1120.41C-43.21,1114.33 -52.75,1107.2 -61.16,1099.68C-59.77,1112.56 -66.65,1123.07 -66.11,1134.97L-66.1,1134.94ZM631.07,1378.36C629.27,1378.06 627.88,1377.83 626.8,1377.65C628.19,1377.88 629.81,1378.15 631.07,1378.36ZM546.15,836.85C547.5,839.12 548.86,841.38 550.25,843.61C549.04,841.24 547.66,839 546.15,836.85ZM-25.99,1084.42C-25.4,1084.85 -24.81,1085.28 -24.21,1085.7L-23.95,1085.02L-25.99,1084.42ZM1469.26,1085.12L1909.84,962.76L1907.31,953.64L1466.86,1075.96C1468.15,1078.83 1468.96,1081.92 1469.27,1085.11L1469.26,1085.12ZM6.37,1388.52C-5,1374.18 -18.19,1356.74 -32.95,1340.51C-43.59,1328.81 -55.05,1317.73 -67.24,1308.9C-69.13,1307.53 -71.04,1306.21 -72.97,1304.95C-71.04,1307.09 -69.13,1309.3 -67.24,1311.53C-54.84,1326.16 -43.38,1342.49 -32.95,1358.12C-26.32,1368.06 -20.11,1377.7 -14.36,1386.42C-3.02,1403.6 19.19,1428.96 43.87,1447.16C74.26,1469.58 108.39,1481.15 130.61,1453.26C115.69,1458.49 98.12,1455.02 80.76,1447.16C50.1,1433.3 20.07,1405.79 6.37,1388.52ZM1467.92,1103.3C1467.92,1104.28 1468.82,1107.74 1469.47,1110.27C1469.61,1110.82 1469.77,1111.42 1469.92,1112.01L1920.03,1002.53L1917.79,993.33L1467.97,1102.73L1467.91,1103.29L1467.92,1103.3ZM1477.89,1267.47L1953.85,1246.16L1953.43,1236.7L1477.91,1257.99L1477.89,1267.47ZM550.79,798.65C530.05,763.68 524.65,722.07 518.5,681.88C512.36,641.69 504.35,600 479.72,567.65C455.1,535.3 408.89,515.75 372.49,533.85C403.54,528.68 430.79,559.2 436.04,590.24C441.29,621.27 431.59,652.58 426.11,683.58C424.05,695.25 415.37,738.21 430.33,743.82C434.38,745.34 437.92,744.83 441.01,743.03C445.13,739.51 447.72,733.3 449.19,727.76C450.68,722.14 451.97,716.47 453.08,710.77C455.12,700.27 456.5,689.64 457.23,678.97C458.31,663.07 457.94,647.07 456.07,631.25C461.2,646.72 464.97,662.74 466.29,678.97C466.6,682.73 466.77,686.5 466.8,690.28C466.9,703.2 465.3,716.1 465.6,729.02C465.67,732.28 465.91,735.52 466.22,738.75C467.72,754.3 471.89,769.48 478.07,783.91C498.32,817.79 526.8,847.68 535.73,885.96C531.09,847.37 506.08,814.46 494.45,777.38C493.84,775.44 493.27,773.48 492.73,771.52C499.03,783.82 506.52,795.36 515.99,805.47C525.91,816.06 537.94,825.08 546.14,836.85C529.35,808.52 516.04,777.17 510.07,745.11C519.23,765.81 533.2,784.39 550.78,798.66L550.79,798.65ZM700.91,844.47C716.05,850.19 734.95,847.88 748.93,839.8C765.26,830.37 776.26,811.57 774.65,792.78C776.61,815.7 711.26,832.05 700.9,844.48L700.91,844.47ZM1475.28,1290.43C1475.95,1291.31 1476.54,1292.22 1477.1,1293.15L1954.88,1287.21L1954.76,1277.74L1477.36,1283.68C1476.93,1286.02 1476.25,1288.29 1475.28,1290.43ZM1477.95,1241.73L1951.51,1205.17L1950.78,1195.73L1477.97,1232.23L1477.95,1241.73ZM1473.02,1136.49L1472.95,1138.03L1928.94,1042.61L1927,1033.34L1472.87,1128.37C1473.07,1130.95 1473.15,1133.65 1473.02,1136.49ZM1478.06,1189.81L1942.85,1123.52L1941.51,1114.15L1478.08,1180.24L1478.06,1189.8L1478.06,1189.81ZM1478.12,1160.33L1478.12,1163.53L1936.55,1082.96L1934.91,1073.64L1477.43,1154.04C1477.88,1156.08 1478.13,1158.18 1478.12,1160.33ZM1478,1215.87L1947.83,1164.28L1946.8,1154.87L1478.02,1206.34L1478,1215.87ZM1063.91,829.73C1063.86,830.06 1063.98,830.34 1064.17,830.6L1065.18,829.91C1065.67,829.28 1064.05,828.94 1063.91,829.73ZM1044.24,835.31C1024.11,843.54 1006.83,858.55 995.83,877.32L992.79,880.28C998.54,874.53 1006.4,871.53 1013.48,867.52C1026.58,860.1 1037.43,848.74 1044.24,835.3L1044.24,835.31ZM1123.76,848.8C1108.68,834.27 1086.3,827.86 1065.78,831.83C1083.63,842.21 1103.54,852.84 1123.76,848.8ZM1134.1,935.56C1126.64,924.55 1124.94,910.5 1117.96,899.17C1103.44,875.6 1068.92,870.83 1043.99,882.84C1019.05,894.85 1002.42,919.28 990.69,944.35C965.89,997.36 957.41,1057.97 937.95,1112.7C934.46,1129.42 930.64,1146.11 925.51,1162.32C932.69,1151.18 941.09,1140.05 943.79,1135.1C963.71,1098.62 986.71,1056.01 995.17,1014.96C987.44,1052.06 979.7,1089.16 971.97,1126.26C990.04,1087.56 1019.42,1051.19 1023.01,1007.6C1021.41,1032.11 1019.81,1056.62 1018.21,1081.14C1026.13,1073.41 1034.1,1065.72 1042.11,1058.09C1044.92,1055.42 1047.87,1052.53 1048.75,1048.75C1049.42,1045.88 1048.8,1042.88 1048.35,1039.97C1044.77,1017.23 1051.74,993.05 1066.88,975.7C1053.04,976.75 1039.69,983.3 1030.39,993.62C1036.66,976.21 1051.61,962.17 1069.38,957C1056.63,952.69 1041.73,955.5 1031.43,964.15C1036.87,953.7 1046.28,945.1 1057.62,941.87C1068.95,938.64 1082.08,941.31 1090.42,949.63C1095.77,954.97 1098.94,962.17 1104.23,967.56C1113.55,977.05 1128.27,979.5 1141.35,977.09C1154.43,974.69 1166.32,968.13 1177.95,961.67C1182.99,958.87 1188.85,954.11 1186.97,948.66C1169.42,958.02 1145.24,952.03 1134.08,935.56L1134.1,935.56ZM956.94,963.1C958.26,951.34 1000.71,915.15 986.57,899.84C975.94,888.34 957.89,954.67 956.94,963.1ZM1240.42,790.34C1228.83,798.59 1216.33,807.15 1202.12,807.66C1175.89,808.59 1157.78,783.23 1138.35,765.59C1087.08,719.04 1003.92,721.64 944.83,757.75C885.74,793.86 847.61,856.58 822.93,921.29C798.26,986 784.87,1054.47 762.15,1119.88C750.09,1154.58 734.76,1189.36 708.3,1214.85C681.84,1240.34 642,1254.76 607.37,1242.48C642.32,1263.1 689.55,1260.51 722.05,1236.21C689.29,1277.77 624.54,1289.74 579.09,1262.63C595.81,1293.06 635.86,1301.4 670.55,1299.78C644.71,1300.98 623.59,1305.51 597.66,1297.95C585.45,1294.39 573.69,1289.26 562.79,1282.72C553.18,1276.95 543.8,1264.62 533.86,1260.59C505.62,1249.16 546.87,1294.07 553.11,1299.82C571.96,1317.2 594.36,1330.8 618.65,1339.08C644.28,1347.82 671.82,1350.58 698.72,1347.62C726.37,1337.97 751.67,1319.83 770.78,1297.42C803.83,1258.67 821.07,1208.93 832.78,1159.36C844.49,1109.79 851.44,1058.98 867.42,1010.63C863.02,1047.13 858.62,1083.63 854.23,1120.13C850,1155.27 845.67,1190.74 836.47,1224.81C843.98,1208.35 852.5,1192.01 857.27,1177.02C868.6,1141.42 877.07,1104.96 884.09,1068.28C891.27,1030.74 906.3,982.97 903.71,944.79C906.81,990.36 909.87,1036.38 907.64,1081.89C919.48,1028.39 929.42,974.39 949.52,923.53C962.88,889.71 981.45,856.67 1010.37,834.63C1039.29,812.59 1080.28,803.65 1112.84,819.84C1126.39,826.58 1138.09,837.29 1152.68,841.31C1170.09,846.11 1189.1,840.37 1203.88,829.99C1218.66,819.61 1229.91,805.03 1240.43,790.35L1240.42,790.34ZM1188.08,867.61C1202.27,863.82 1213.66,851.11 1215.87,836.59C1198.76,852.25 1173.54,858.5 1151.1,852.66L1148.94,852.7C1150.06,852.7 1148.64,850.73 1147.9,851.57C1147.17,852.41 1147.82,853.71 1148.52,854.58C1157.68,866.06 1173.88,871.4 1188.08,867.61ZM1158.52,899.83L1156.23,901.72C1156.68,902.96 1157.11,904.17 1157.52,905.32C1158.25,907.38 1158.96,909.38 1159.65,911.17L1170.48,902.22C1166.42,901.75 1162.42,900.94 1158.52,899.82L1158.52,899.83ZM393.63,553.96C395.22,555.3 396.74,556.73 398.18,558.23C398.39,557.72 398.61,557.2 398.84,556.69L393.64,553.96L393.63,553.96ZM1065.79,831.83C1065.62,831.73 1065.44,831.63 1065.26,831.53C1064.85,831.29 1064.44,830.98 1064.17,830.61L1060.61,833.04C1062.32,832.55 1064.05,832.17 1065.79,831.83ZM394.27,683.06C391.4,690.91 390.54,699.76 392.26,707.88C393.44,713.43 395.8,718.63 399.59,722.91C400.71,713.52 403.87,704.41 407,695.31C410.89,684 414.74,672.71 414.58,660.97C403.89,659.71 397.78,673.48 394.27,683.06ZM303.02,771.91C277.76,778.41 254.5,790.88 230.11,800.11C205.72,809.34 178.75,815.34 153.64,808.26C133.33,802.54 116.35,788.88 99.99,775.56C110.71,809.24 137.12,837.55 169.97,850.59C199.81,862.43 233.02,861.83 265,859.06C296.98,856.29 329.18,851.52 361.02,855.63C392.86,859.73 425.17,874.31 441.93,901.69C422.36,891.68 399.71,887.8 377.93,890.72C402.62,898.51 425.06,913.34 441.89,933.01C424.38,923.53 404.73,918.04 384.84,917.08C416.26,927.73 435.14,960.68 441.68,993.21C448.22,1025.74 445.3,1059.38 448.4,1092.41C451.61,1126.58 461.35,1160.13 476.95,1190.7C471.86,1166.94 470.88,1142.29 474.08,1118.2C478.97,1147.02 493.59,1174.1 515,1194C513.81,1190.65 512.68,1187.28 511.59,1183.89C500.67,1160.97 495.11,1134.77 492.69,1109.34C489.41,1074.83 490.64,1039.8 486.62,1005.49C485.2,996.34 483.73,987.2 482.08,978.09C484.11,987.15 485.54,996.3 486.62,1005.49C490.92,1033.18 494.8,1060.95 501.95,1088.02C511.46,1124.04 527.38,1159.45 554.47,1185.02C566.98,1196.82 582.18,1206.19 598.45,1211.86C623.9,1215.25 650.48,1210.62 672.89,1198.04C684.4,1191.58 713.85,1172.28 695.81,1159.02C688.14,1153.39 676.52,1156.19 667.78,1155.33C657.29,1154.3 647.02,1151.31 637.56,1146.67C617.55,1136.86 601.35,1120.51 588.4,1102.37C556.22,1057.32 542.97,1001.96 527.09,948.92C511.21,895.88 490.4,841.33 448.25,805.43C408.94,771.95 353.02,759.05 303.01,771.91L303.02,771.91ZM787.95,657.43C754.61,674.54 720.2,689.97 689.33,711.23C629.34,752.54 584.49,816.52 570.05,887.91C559.11,942.01 566.41,999.9 590.75,1049.22C597.86,1064.62 606.99,1079.26 617.19,1092.56C630.95,1110.51 647.47,1127.45 668.63,1135.42C677.21,1138.65 686.67,1140.02 695.88,1139.41C686.31,1135.45 677.32,1129.67 669.18,1123.24C665.15,1120.06 661.27,1116.69 657.54,1113.17C626.35,1083.78 605.8,1043.17 601.04,1000.55C609.19,1036.72 630.45,1069.63 659.47,1092.64C669.18,1100.33 679.75,1106.92 690.99,1112.16C703.1,1117.8 716.32,1121.96 729.58,1121.75C711.81,1117.58 695.44,1107.01 682.84,1093.57C674.69,1084.88 667.93,1075.08 662.1,1064.69C656.01,1053.82 650.93,1042.3 646.39,1030.7C645.39,1028.15 644.42,1025.58 643.52,1022.98C641.17,1016.16 639.37,1009.18 639.29,1002C641.57,1007.51 644.06,1012.96 646.76,1018.3C651.69,1028.07 657.34,1037.47 663.84,1046.2C668.84,1052.92 674.33,1059.26 680.4,1065.06C697.88,1081.78 720.34,1093.89 744.33,1096.64C744.88,1095.05 745.41,1093.45 745.93,1091.83C741.15,1090.39 736.56,1087.67 732.44,1084.77C702.56,1063.73 681.66,1030.35 675.78,994.28C687.78,1026.46 720.34,1049.53 754.45,1051.46C755.44,1036.46 753.37,1021.76 745.95,1008.71C732.2,984.52 703.07,971.87 690.26,947.17C681.05,929.4 681.8,908.17 684.85,888.39C671.17,914.02 664.47,943.29 665.4,972.32C656.06,945.89 654.23,916.8 660.45,889.45C649.6,916.71 643.72,945.93 643.19,975.26C633.64,945.13 635.36,911.57 647.93,882.57C631.79,904.53 620.7,930.17 615.73,956.97C609.22,909.45 636.17,862.57 672.41,831.14C708.64,799.71 753.47,780.37 796.29,758.77C839.11,737.16 881.98,711.61 909.28,672.18C942.65,623.98 947.99,559.84 931.75,503.5C930.21,498.15 926.76,491.69 921.26,492.47C923.44,529.88 905.58,566.39 879.91,593.7C854.24,621.01 821.3,640.3 787.96,657.41L787.95,657.43ZM398.17,558.23C389.11,580.09 395.85,607.59 414.17,622.62C420.78,600.38 414.23,574.87 398.17,558.23ZM1032.07,699.65C1031.36,701.33 1030.79,703.08 1030.42,704.93C1030.97,703.17 1031.52,701.41 1032.07,699.65ZM1360.36,1084.01C1340.43,1031.29 1284.73,1011.52 1242.77,1010.27C1103.79,1006.14 992.06,1145.73 915.45,1234.23C908.5,1242.25 901.85,1249.86 895.48,1256.9C866.61,1288.84 805.13,1360.13 739.91,1378.7C772.98,1377.44 799.5,1367.73 827.38,1351.48C855.54,1335.07 880.97,1311.11 906.54,1287.43C925.06,1268.94 942.82,1249.32 960.6,1230.29C978.38,1211.26 998.46,1193.02 1018.19,1176.03C1028.77,1166.92 1038.25,1156.7 1049.35,1148.07C1058.37,1141.05 1069.48,1135.28 1077.02,1126.47C1062.36,1144.7 1044.23,1160.66 1028.96,1178.97C1017.59,1192.61 1006.72,1206.43 996.07,1220.41C1001.64,1218.06 1007.22,1216.27 1012.75,1215.02C1027.76,1198.8 1042.44,1182.38 1059.81,1167.9C1080.63,1150.54 1103.83,1131.76 1127.64,1119.24C1112.31,1134.11 1093.23,1147.17 1079.69,1164.25C1067.14,1180.1 1055.52,1197.05 1043.54,1213.45C1045.66,1213.74 1047.75,1214.11 1049.81,1214.56C1081.76,1178.08 1122.79,1151.09 1160.12,1120.78C1141.59,1136.91 1125.87,1155.44 1109.87,1174.12C1098.98,1186.83 1087.94,1198.96 1078.72,1212.93C1076.57,1216.19 1074.37,1219.94 1072.04,1223.68C1073.76,1224.79 1075.42,1225.97 1077,1227.24C1104.25,1199.99 1133.46,1176.93 1166.92,1156.01C1148.96,1167.75 1129.23,1189.3 1116.97,1206.55C1110.01,1216.33 1098.6,1228.3 1089.32,1240.7C1093.67,1247.34 1096.72,1255.04 1098.12,1263.69C1126.55,1221.66 1156.38,1186.27 1200.73,1168.5C1236.15,1154.31 1293.79,1170.47 1303.34,1211.77C1332.55,1183.24 1362.23,1155.91 1399.6,1142.8C1411.87,1138.49 1424.96,1135.72 1439.14,1134.94C1439.68,1123.04 1432.8,1112.53 1434.19,1099.65C1424.06,1108.71 1412.27,1117.21 1399.59,1123.98C1384.26,1132.17 1367.62,1137.82 1350.98,1138.84C1323.56,1140.51 1276.6,1129.89 1281.19,1092.36C1285.11,1060.33 1334.24,1063.43 1360.35,1084L1360.36,1084.01ZM741.97,1378.36C743.23,1378.15 744.84,1377.88 746.24,1377.65C745.17,1377.83 743.77,1378.06 741.97,1378.36ZM1145.13,984.52C1134.86,988 1124.31,991.52 1113.48,991.09C1102.65,990.66 1091.31,985.38 1086.8,975.52L1085.46,977.67C1086.8,991.53 1098.69,1003.65 1112.53,1005.24C1126.37,1006.83 1140.7,997.72 1145.14,984.53L1145.13,984.52ZM1122.84,610.26C1105.68,623.77 1084.38,630.7 1063.45,636.96C1042.53,643.22 1021.09,649.25 1002.94,661.39C982.02,675.38 966.55,697.29 960.37,721.68L1032.74,697.49C1032.52,698.21 1032.29,698.93 1032.07,699.64C1036.77,688.61 1048.39,681.12 1059.55,675.76C1072.41,669.59 1086.66,663.95 1094.37,651.95C1091.16,664.37 1085.5,676.15 1077.82,686.42C1095.99,678.51 1111.66,664.95 1122.1,648.1C1121.68,660.57 1118.29,672.93 1112.29,683.88C1132.97,669.64 1150.17,649.54 1158.02,625.69C1165.87,601.84 1163.54,574.17 1149.2,553.56C1152.42,575.16 1140.01,596.74 1122.85,610.26L1122.84,610.26ZM850.6,745.54C835.32,763.56 815.45,777.65 793.38,786.1L792.04,789.46C805.59,795.57 822.4,793.72 834.29,784.8C846.18,775.88 852.67,760.26 850.59,745.54L850.6,745.54ZM59.33,915.23C59.43,914.99 59.56,914.77 59.66,914.53L-400.52,635.79L-405.43,643.89L57.1,924.05C57.38,921.07 58.1,918.09 59.33,915.23ZM109.58,978.02C99.51,973.17 89.97,967.22 81.21,960.2L67.89,949.52C65.51,947.61 63.52,945.39 61.89,942.95L-421.35,671.17L-425.99,679.42L105.9,978.56C107.13,978.37 108.35,978.19 109.58,978.02ZM78.54,898.58L-378.56,601.11L-383.72,609.04L68.63,903.43C71.59,901.21 74.95,899.55 78.54,898.58ZM-3,1041.84L-507.81,857.12L-511.06,866.01L-8.34,1049.96C-6.67,1047.18 -4.87,1044.48 -3.01,1041.83L-3,1041.84ZM33.59,1006.21L-476.84,781.08L-480.66,789.74L24.74,1012.66C27.58,1010.42 30.54,1008.28 33.59,1006.22L33.59,1006.21ZM90.23,848.82L-331.32,533.95L-336.98,541.53L93.84,863.33C92.22,858.67 91,853.81 90.23,848.82ZM13.2,1022.82L-492.94,818.84L-496.48,827.62L6.17,1030.2C8.41,1027.66 10.76,1025.21 13.2,1022.83L13.2,1022.82ZM87.48,982.36L-441.03,707.21L-445.4,715.61L74.41,986.22C78.7,984.78 83.06,983.49 87.48,982.35L87.48,982.36ZM58.25,992.51L-459.54,743.85L-463.64,752.38L47.44,997.81C50.95,995.93 54.56,994.16 58.26,992.5L58.25,992.51ZM106.99,900.12C111.58,900.74 116.27,900.79 121.03,900.36C118.83,898.78 116.74,897.06 114.74,895.25L-355.48,567.14L-360.9,574.9L104.73,899.82L106.99,900.13L106.99,900.12ZM89.3,828.67C84.33,821.77 79.93,814.45 76.15,806.8L-306.11,501.55L-312.02,508.95L89.3,829.41L89.3,828.67ZM235.19,761.41L-134.09,325.75L-141.31,331.87L226.03,765.25C229.07,764.01 232.13,762.72 235.19,761.41ZM278.48,743.91L-69.58,274.95L-77.18,280.59L269.17,747.25C272.23,746.09 275.33,744.98 278.48,743.91ZM212.76,770.31L-165.07,352.68L-172.09,359.03L202.81,773.42C206.02,772.53 209.34,771.5 212.76,770.31ZM256.74,752.2L-102.25,299.83L-109.66,305.72L247.69,756.03C250.68,754.75 253.7,753.47 256.74,752.2ZM187.16,776.69L-195.17,380.6L-201.98,387.17L174.64,777.35C178.54,777.49 182.71,777.27 187.15,776.69L187.16,776.69ZM62.85,770.72C61.84,767.55 61.41,764.3 61.49,761.11L-279.85,469.99L-285.99,477.19L64.59,776.19L62.85,770.72ZM74.23,737.75C74.43,737.61 74.65,737.49 74.85,737.36L-252.59,439.28L-258.96,446.28L67.81,743.74C69.61,741.47 71.75,739.44 74.23,737.75ZM109.09,739.24L121.41,749.27C127.99,754.63 134.68,760.07 141.41,764.7L-224.36,409.48L-230.95,416.27L95.26,733.07C100.22,733.86 105,735.91 109.09,739.24ZM-15.12,1062.78L-521.44,895.85L-524.4,904.84L-18.84,1071.52C-17.7,1068.55 -16.45,1065.64 -15.12,1062.78ZM1050.54,605.42L1053.74,604.46C1056.86,603.53 1059.95,602.59 1062.99,601.62L1288.81,180.52L1280.47,176.05L1050.15,605.53C1050.27,605.49 1050.4,605.45 1050.53,605.42L1050.54,605.42ZM-82.55,1346.67L-584.12,1381.44L-583.47,1390.88L-75.85,1355.69C-78.01,1352.7 -80.26,1349.68 -82.56,1346.67L-82.55,1346.67ZM-61.17,1376.94C-62.66,1374.71 -64.26,1372.34 -65.91,1369.91L-580.77,1422.35L-579.81,1431.77L-59.92,1378.81C-60.34,1378.19 -60.74,1377.57 -61.16,1376.94L-61.17,1376.94ZM-98.15,1327.68C-99.59,1326.08 -100.8,1324.35 -101.83,1322.55L-586.15,1340.43L-585.8,1349.89L-94.57,1331.76C-95.9,1330.21 -97.06,1328.89 -98.15,1327.69L-98.15,1327.68ZM1420.18,1402.22C1419.81,1402.78 1419.44,1403.34 1419.07,1403.9C1418.81,1404.29 1418.54,1404.71 1418.28,1405.1C1416.74,1407.43 1415,1409.93 1413.07,1412.57C1410.16,1416.56 1406.82,1420.86 1403.1,1425.35C1400.86,1428.06 1398.48,1430.84 1395.97,1433.67C1392.5,1437.57 1388.8,1441.55 1384.89,1445.53L1384.87,1445.53C1382.26,1448.18 1379.57,1450.83 1376.79,1453.46L1376.8,1453.46C1372.91,1457.14 1368.87,1460.77 1364.68,1464.3L1364.66,1464.3C1361.65,1466.84 1358.56,1469.32 1355.42,1471.74L1355.44,1471.74C1354.25,1472.66 1353.06,1473.56 1351.86,1474.44C1348.53,1476.89 1345.23,1479.19 1341.94,1481.34C1338.21,1483.77 1334.52,1485.98 1330.85,1488.01L1330.87,1488.01C1325.42,1491.04 1320.03,1493.62 1314.71,1495.76L1314.69,1495.76C1309.49,1497.84 1304.36,1499.52 1299.3,1500.76L1299.31,1500.76C1291.97,1502.57 1284.78,1503.48 1277.76,1503.48C1275.92,1503.48 1274.1,1503.41 1272.3,1503.29L1272.25,1503.27C1258.31,1502.32 1245.57,1497.76 1234.51,1489.8L1234.49,1489.8C1228.84,1485.72 1223.64,1480.77 1218.94,1474.97L1218.96,1474.97C1218.8,1474.78 1218.63,1474.59 1218.47,1474.39L1208.29,1461.61L1208.23,1461.53C1205.47,1458.06 1203.61,1454.11 1202.65,1449.99C1202.61,1449.8 1202.57,1449.61 1202.53,1449.42C1202.46,1449.08 1202.4,1448.75 1202.34,1448.41C1202.3,1448.19 1202.26,1447.98 1202.23,1447.76C1202.16,1447.32 1202.11,1446.88 1202.06,1446.44C1202.03,1446.11 1202,1445.77 1201.98,1445.44C1201.97,1445.3 1201.96,1445.15 1201.95,1445.01C1201.88,1443.8 1201.89,1442.59 1201.97,1441.39C1202.15,1438.76 1202.68,1436.15 1203.57,1433.63C1203.59,1433.56 1203.61,1433.49 1203.64,1433.42C1202.75,1432.47 1201.88,1431.49 1201.02,1430.49C1200.49,1429.86 1199.97,1429.22 1199.44,1428.57C1199.17,1428.23 1198.89,1427.9 1198.62,1427.55C1197.95,1426.69 1197.29,1425.82 1196.65,1424.93C1196.57,1424.81 1196.48,1424.7 1196.4,1424.58C1195.69,1423.59 1194.99,1422.58 1194.3,1421.54C1193.79,1420.78 1193.28,1420.02 1192.79,1419.24C1191.45,1417.08 1190.28,1414.93 1189.22,1412.78C1188.81,1411.95 1188.42,1411.12 1188.05,1410.29C1187.68,1409.45 1187.32,1408.62 1186.99,1407.79C1186.01,1409.06 1185.03,1410.35 1184.05,1411.65C1177.46,1420.44 1171.01,1429.98 1164.65,1439.37C1164.43,1439.7 1164.21,1440.02 1163.98,1440.35C1162.67,1442.28 1161.37,1444.21 1160.06,1446.13C1159.82,1446.48 1159.58,1446.84 1159.34,1447.19C1158.61,1448.26 1157.89,1449.34 1157.17,1450.42C1157.06,1450.58 1156.96,1450.74 1156.85,1450.9C1156.13,1451.99 1155.4,1453.1 1154.66,1454.23C1154.64,1454.26 1154.62,1454.29 1154.6,1454.32C1153.42,1456.14 1152.21,1458.01 1150.95,1459.97C1150.89,1460.06 1150.83,1460.16 1150.77,1460.26C1150.59,1460.55 1150.4,1460.85 1150.21,1461.14C1149.34,1462.5 1148.45,1463.9 1147.52,1465.36L1147.01,1466.16C1146.59,1466.82 1146.16,1467.49 1145.74,1468.16C1144.58,1469.98 1143.41,1471.83 1142.22,1473.68C1140.5,1476.36 1138.74,1479.06 1136.95,1481.77C1135.77,1483.55 1134.58,1485.33 1133.36,1487.11C1131.55,1489.76 1129.69,1492.39 1127.79,1495.01C1126.55,1496.72 1125.29,1498.42 1124,1500.1C1122.04,1502.67 1120.02,1505.22 1117.94,1507.71C1116.6,1509.32 1115.23,1510.9 1113.84,1512.46L1113.83,1512.46C1111.64,1514.91 1109.38,1517.3 1107.04,1519.62C1105.56,1521.09 1104.05,1522.53 1102.5,1523.93C1099.99,1526.2 1097.39,1528.37 1094.7,1530.43L1094.72,1530.43C1093.06,1531.72 1091.36,1532.95 1089.62,1534.13C1086.67,1536.14 1083.61,1537.98 1080.44,1539.68L1080.46,1539.68C1078.57,1540.71 1076.64,1541.66 1074.66,1542.55C1071.11,1544.15 1067.41,1545.53 1063.57,1546.69L1063.6,1546.71C1061.43,1547.36 1059.22,1547.94 1056.95,1548.44C1055.94,1548.66 1054.92,1548.86 1053.89,1549.05C1053.68,1549.09 1053.48,1549.12 1053.27,1549.16C1051.11,1549.54 1048.9,1549.86 1046.65,1550.09L1046.63,1550.09C1045.45,1550.21 1044.26,1550.31 1043.06,1550.39C1042.94,1550.4 1042.82,1550.41 1042.7,1550.42C1041.44,1550.5 1040.13,1550.54 1038.81,1550.54C1037.6,1550.54 1036.37,1550.49 1035.15,1550.42C1032.25,1550.25 1029.31,1549.87 1026.35,1549.3C1710.58,2582.17 1710.58,2582.17 1026.35,1549.3C1025.37,1549.11 1024.39,1548.9 1023.41,1548.67C1023.35,1548.66 1023.3,1548.64 1023.24,1548.63C1022.31,1548.41 1021.38,1548.17 1020.45,1547.91C1020.33,1547.88 1020.2,1547.83 1020.08,1547.8C1019.22,1547.55 1018.35,1547.3 1017.49,1547.02C1017.3,1546.96 1017.1,1546.89 1016.91,1546.82C1016.11,1546.56 1015.32,1546.29 1014.52,1546C1014.3,1545.92 1014.09,1545.83 1013.87,1545.75C1013.1,1545.46 1012.32,1545.16 1011.55,1544.85C999.33,1539.82 987.67,1531.58 978.64,1520.67C976.85,1518.51 975.17,1516.24 973.61,1513.88C973.49,1513.69 973.36,1513.51 973.24,1513.32C972.85,1512.72 972.48,1512.11 972.1,1511.5C971.9,1511.17 971.69,1510.83 971.49,1510.5C971.16,1509.94 970.84,1509.37 970.52,1508.79C970.3,1508.39 970.08,1507.98 969.86,1507.57C969.57,1507.02 969.28,1506.47 969,1505.92C968.77,1505.46 968.55,1505 968.33,1504.54C968.08,1504.01 967.82,1503.47 967.58,1502.93C967.35,1502.41 967.13,1501.88 966.91,1501.36C966.7,1500.85 966.48,1500.35 966.28,1499.84C965.92,1498.91 965.57,1497.97 965.24,1497.02C965.04,1496.46 964.87,1495.88 964.68,1495.32C964.52,1494.82 964.36,1494.32 964.21,1493.82C964.06,1493.31 963.91,1492.79 963.77,1492.27C963.6,1491.63 963.43,1490.98 963.27,1490.33C963.17,1489.92 963.07,1489.51 962.97,1489.09C962.72,1487.99 962.49,1486.89 962.29,1485.77L959.67,1471.03C959.59,1470.57 959.53,1470.12 959.47,1469.66C959.44,1469.39 959.4,1469.12 959.38,1468.85C959.34,1468.43 959.3,1468.02 959.27,1467.6C959.26,1467.4 959.26,1467.19 959.25,1466.99C959.24,1466.67 959.23,1466.35 959.23,1466.04L959.23,1465.33C959.23,1465.04 959.25,1464.75 959.26,1464.46C959.27,1464.23 959.28,1464 959.3,1463.77C959.33,1463.31 959.38,1462.84 959.43,1462.38C959.46,1462.16 959.49,1461.94 959.52,1461.72C959.56,1461.44 959.6,1461.15 959.65,1460.87C959.69,1460.62 959.74,1460.38 959.79,1460.14C959.84,1459.88 959.9,1459.62 959.96,1459.36C960.02,1459.12 960.07,1458.88 960.13,1458.64C960.23,1458.27 960.33,1457.9 960.44,1457.53C960.46,1457.46 960.48,1457.4 960.5,1457.33C960.52,1457.26 960.52,1457.24 960.54,1457.19C960.32,1456.81 960.11,1456.42 959.9,1456.03L959.93,1456.05C957.48,1451.59 955.6,1446.92 954.31,1442.14L954.29,1442.14C954.24,1441.94 954.18,1441.76 954.14,1441.57L954.17,1441.59C953.18,1437.79 952.56,1433.92 952.31,1430.01L952.29,1430.01C952.29,1429.93 952.29,1429.86 952.28,1429.78L952.3,1429.78C952.1,1426.36 952.19,1422.9 952.56,1419.45L952.53,1419.45L952.53,1419.38L952.56,1419.38C953.12,1414.31 954.3,1409.23 956.14,1404.24C956.16,1404.19 956.18,1404.13 956.2,1404.08C956.46,1403.39 956.73,1402.7 957.02,1402.01C957.09,1401.83 957.16,1401.66 957.24,1401.48C957.56,1400.73 957.89,1399.97 958.24,1399.23C958.78,1398.07 959.36,1396.93 959.97,1395.8C960.15,1395.47 960.36,1395.15 960.54,1394.82C960.99,1394.03 961.43,1393.24 961.91,1392.47C958.33,1393.83 954.6,1395.42 950.65,1397.23C950.47,1397.31 950.28,1397.4 950.1,1397.49C949.49,1397.77 948.88,1398.05 948.27,1398.34C947.9,1398.52 947.51,1398.7 947.14,1398.88C946.7,1399.09 946.27,1399.29 945.83,1399.5C945.45,1399.68 945.07,1399.87 944.68,1400.06C944.23,1400.28 943.78,1400.5 943.32,1400.72C942.76,1401 942.18,1401.28 941.61,1401.57C941.33,1401.71 941.05,1401.84 940.77,1401.99C934.72,1405.01 928.16,1408.43 920.94,1412.25C869.28,1439.5 804.98,1473.41 690.38,1473.42C684.8,1473.42 679.08,1473.34 673.36,1473.17C556.4,1471.02 492.65,1433.69 450.46,1408.99C434.33,1399.55 422.13,1392.62 411.06,1388.7C413.47,1392.02 415.56,1395.53 417.28,1399.23C417.58,1399.86 417.86,1400.5 418.13,1401.14C418.21,1401.33 418.29,1401.52 418.37,1401.72C418.56,1402.17 418.75,1402.62 418.92,1403.08C419,1403.29 419.08,1403.51 419.16,1403.72C419.33,1404.16 419.49,1404.6 419.65,1405.04C419.72,1405.25 419.79,1405.45 419.86,1405.66C420.02,1406.12 420.17,1406.58 420.32,1407.04C420.38,1407.22 420.44,1407.41 420.49,1407.59C420.64,1408.09 420.79,1408.58 420.93,1409.08C420.97,1409.22 421.01,1409.37 421.05,1409.51C421.21,1410.07 421.35,1410.63 421.49,1411.2C421.51,1411.28 421.53,1411.36 421.55,1411.44C423.2,1418.22 423.68,1425.09 423.05,1431.84L423.06,1431.84L423.05,1431.84C422.67,1435.89 421.9,1439.89 420.72,1443.81C420.69,1443.92 420.65,1444.04 420.61,1444.16L420.59,1444.16C419.21,1448.66 417.34,1453.03 414.93,1457.22C415.03,1457.54 415.11,1457.86 415.2,1458.19C415.26,1458.41 415.33,1458.62 415.38,1458.83C415.41,1458.94 415.43,1459.04 415.45,1459.15C415.54,1459.54 415.63,1459.94 415.71,1460.34C415.75,1460.54 415.78,1460.74 415.82,1460.94C415.87,1461.25 415.92,1461.56 415.97,1461.87C416,1462.1 416.03,1462.32 416.06,1462.55C416.09,1462.84 416.12,1463.14 416.15,1463.44C416.18,1463.84 416.21,1464.24 416.23,1464.63C416.24,1464.92 416.26,1465.21 416.26,1465.5L416.26,1466.43C416.26,1466.63 416.26,1466.82 416.25,1467.02C416.24,1467.35 416.22,1467.67 416.2,1468C416.19,1468.17 416.17,1468.34 416.16,1468.51C416.13,1468.86 416.1,1469.21 416.05,1469.55C416,1469.91 415.95,1470.27 415.89,1470.62C415.87,1470.76 415.85,1470.9 415.83,1471.04L413.61,1483.49L413.33,1485.07L413.2,1485.78C412.98,1486.99 412.74,1488.19 412.47,1489.37C412.22,1490.44 411.95,1491.49 411.66,1492.53C411.63,1492.63 411.61,1492.73 411.58,1492.83C410.94,1495.12 410.19,1497.34 409.35,1499.51C408.98,1500.46 408.59,1501.39 408.19,1502.32C405.47,1508.58 401.94,1514.32 397.84,1519.48C397.76,1519.58 397.68,1519.67 397.61,1519.77C396.88,1520.68 396.13,1521.57 395.37,1522.44C395.26,1522.57 395.15,1522.69 395.04,1522.82C394.27,1523.68 393.49,1524.53 392.69,1525.35C392.6,1525.45 392.5,1525.55 392.41,1525.64C391.52,1526.55 390.62,1527.43 389.7,1528.3C385.46,1532.26 380.86,1535.74 376.04,1538.7C374.83,1539.44 373.62,1540.15 372.39,1540.82L372.38,1540.82C371.24,1541.44 370.09,1542.03 368.94,1542.6C368.72,1542.71 368.5,1542.81 368.28,1542.92C367.3,1543.39 366.31,1543.84 365.32,1544.27C365.09,1544.37 364.86,1544.47 364.63,1544.57C362.24,1545.58 359.83,1546.47 357.41,1547.23C357.17,1547.3 356.93,1547.37 356.7,1547.44C355.76,1547.73 354.82,1547.99 353.88,1548.24C353.52,1548.33 353.17,1548.42 352.81,1548.51C351.94,1548.72 351.08,1548.92 350.21,1549.1C349.87,1549.17 349.54,1549.25 349.2,1549.31C348.03,1549.54 346.86,1549.74 345.69,1549.91C342.97,1550.3 340.29,1550.5 337.64,1550.54C337.34,1550.54 337.03,1550.56 336.73,1550.56L336.61,1550.56C335.39,1550.56 334.1,1550.52 332.83,1550.44C329.47,1550.23 326.21,1549.85 323.05,1549.31C320.83,1548.94 318.65,1548.49 316.52,1547.96L316.55,1547.94C312.54,1546.96 308.67,1545.73 304.96,1544.27C303.01,1543.51 301.1,1542.68 299.22,1541.79L299.24,1541.79C295.93,1540.21 292.74,1538.47 289.66,1536.57C287.94,1535.5 286.26,1534.39 284.61,1533.23L284.63,1533.23C281.83,1531.25 279.13,1529.17 276.52,1526.96C274.99,1525.67 273.49,1524.34 272.02,1522.98C269.6,1520.73 267.26,1518.4 264.98,1516L264.97,1516C263.59,1514.55 262.24,1513.06 260.91,1511.55C258.76,1509.11 256.68,1506.61 254.65,1504.08C253.38,1502.49 252.14,1500.89 250.92,1499.28C248.97,1496.7 247.07,1494.09 245.22,1491.47C244.03,1489.79 242.86,1488.1 241.71,1486.4C239.89,1483.72 238.11,1481.03 236.37,1478.36C235.19,1476.55 234.03,1474.75 232.88,1472.96C231.42,1470.69 229.99,1468.43 228.58,1466.22L228.04,1465.37C226.25,1462.56 224.59,1459.95 222.99,1457.46C222.95,1457.41 222.92,1457.35 222.88,1457.3C222.47,1456.66 222.06,1456.03 221.65,1455.4C221.58,1455.3 221.52,1455.2 221.45,1455.09C221.07,1454.51 220.69,1453.93 220.32,1453.36C220.22,1453.2 220.11,1453.04 220.01,1452.88C218.74,1450.95 217.49,1449.06 216.22,1447.2C214.45,1444.6 212.68,1441.99 210.91,1439.37C209.24,1436.9 207.56,1434.42 205.87,1431.94C205.87,1431.94 205.87,1431.93 205.86,1431.92C202.61,1427.14 199.33,1422.4 196.01,1417.79C192.69,1413.18 196,1417.77 195.99,1417.76C194.99,1416.37 193.99,1415 192.98,1413.64C192.96,1413.61 192.94,1413.59 192.92,1413.56C191.92,1412.21 190.92,1410.88 189.92,1409.57C189.9,1409.55 189.89,1409.53 189.87,1409.51C189.43,1408.94 188.99,1408.35 188.55,1407.78C188.25,1408.53 187.92,1409.29 187.59,1410.05C187.33,1410.64 187.05,1411.24 186.77,1411.83C186.64,1412.12 186.5,1412.4 186.36,1412.69C186.12,1413.19 185.87,1413.69 185.61,1414.18C185.38,1414.63 185.13,1415.09 184.89,1415.54C184.69,1415.91 184.49,1416.29 184.28,1416.66C183.79,1417.52 183.29,1418.38 182.76,1419.24C182.34,1419.91 181.9,1420.55 181.47,1421.21C178.54,1425.67 175.35,1429.75 171.91,1433.43C172.12,1434.02 172.32,1434.61 172.49,1435.2C172.49,1435.23 172.51,1435.27 172.52,1435.3C173.03,1437.06 173.37,1438.85 173.54,1440.65C173.79,1443.36 173.66,1446.09 173.16,1448.77C172.79,1450.73 172.23,1452.65 171.46,1454.51C171.44,1454.56 171.42,1454.62 171.4,1454.67C171.25,1455.04 171.08,1455.4 170.91,1455.76C170.83,1455.92 170.76,1456.09 170.68,1456.25C170.52,1456.57 170.36,1456.88 170.19,1457.2C170.08,1457.41 169.96,1457.61 169.85,1457.81C169.69,1458.09 169.53,1458.38 169.35,1458.66C169.21,1458.89 169.06,1459.12 168.91,1459.34C168.74,1459.59 168.58,1459.85 168.41,1460.1C168.07,1460.59 167.71,1461.07 167.34,1461.54L159.3,1471.64L157.1,1474.4C153.53,1478.88 149.65,1482.85 145.51,1486.33L145.55,1486.33C132.12,1497.6 115.88,1503.5 97.8,1503.5C96.92,1503.5 96.04,1503.48 95.15,1503.45L95.21,1503.43C88.53,1503.22 81.7,1502.21 74.73,1500.39L74.71,1500.39C68.83,1498.86 62.85,1496.75 56.78,1494.07C52.72,1492.28 48.62,1490.22 44.48,1487.92L44.46,1487.92C39.81,1485.34 35.11,1482.43 30.37,1479.21L30.39,1479.21C28.16,1477.69 25.93,1476.13 23.69,1474.48C22.62,1473.69 21.57,1472.87 20.51,1472.06L20.48,1472.06C16.22,1468.81 12.08,1465.42 8.07,1461.95C5.15,1459.41 2.31,1456.83 -0.46,1454.23L-0.48,1454.23C-4.43,1450.53 -8.21,1446.78 -11.81,1443.04C-14.44,1440.31 -16.94,1437.59 -19.35,1434.9C-23.07,1430.75 -26.54,1426.67 -29.7,1422.77L-29.69,1422.77C-32.06,1419.83 -34.26,1416.99 -36.28,1414.27L-36.29,1414.27C-38.71,1411.01 -40.87,1407.94 -42.73,1405.13C-43.57,1403.86 -44.42,1402.56 -45.28,1401.25C-46.8,1398.93 -48.34,1396.58 -49.92,1394.16C-52.97,1389.49 -56.15,1384.63 -59.42,1379.7L-59.42,1393.6L-576.17,1463.16L-574.91,1472.54L-59.42,1403.15L-59.42,1418.14L-570.19,1503.78L-568.62,1513.12L-59.42,1427.74L-59.42,1442.95L-562.89,1544.19L-561.02,1553.47L-59.41,1452.61L-59.41,1468.08L-554.29,1584.34L-552.12,1593.56L-59.4,1477.81L-59.4,1493.59L-544.4,1624.19L-541.94,1633.33L-59.41,1503.39L-59.41,1519.54L-533.24,1663.7L-530.49,1672.76L-59.42,1529.44L-59.42,1546L-520.81,1702.83L-517.76,1711.79L-59.42,1556L-59.42,1573.04L-507.11,1741.54L-503.78,1750.4L-59.42,1583.16L-59.42,1600.75L-492.18,1779.79L-488.56,1788.54L-59.42,1611L-59.42,1629.2L-476.01,1817.53L-472.11,1826.15L-59.42,1639.58L-59.42,1658.48L-458.63,1854.72L-454.46,1863.21L-59.42,1669.02L-59.42,1688.7L-440.07,1891.34L-435.62,1899.7L-53.8,1696.44L-18.38,1696.44L-420.26,1927.34L-415.55,1935.55L0.63,1696.39L31.21,1696.39L-399.36,1962.64L-394.38,1970.69L49.21,1696.39L75.86,1696.39L-377.34,1997.29L-372.1,2005.17L92.97,1696.39L116.35,1696.39L-354.21,2031.2L-348.72,2038.91L132.68,1696.38L153.32,1696.38L-329.99,2064.35L-324.26,2071.88L168.94,1696.38L187.26,1696.38L-304.73,2096.7L-298.76,2104.04L202.25,1696.38L218.6,1696.38L-278.43,2128.22L-272.22,2135.37L233.03,1696.38L247.69,1696.38L-251.12,2158.88L-244.68,2165.82L261.62,1696.38L274.82,1696.38L-222.83,2188.64L-216.17,2195.37L288.28,1696.39L300.22,1696.39L-193.6,2217.47L-186.73,2223.98L313.26,1696.39L324.11,1696.39L-163.44,2245.34L-156.36,2251.63L336.78,1696.39L346.66,1696.39L-132.41,2272.22L-125.13,2278.27L358.97,1696.38L368.02,1696.38L-100.52,2298.08L-93.05,2303.89L380.02,1696.38L388.33,1696.38L-67.81,2322.9L-60.16,2328.47L400.04,1696.38L407.7,1696.38L-34.32,2346.66L-26.49,2351.98L419.15,1696.39L426.23,1696.39L-0.08,2369.31L7.92,2374.38L437.44,1696.39L444.01,1696.39L34.87,2390.85L43.03,2395.65L454.99,1696.38L461.11,1696.38L70.5,2411.24L78.81,2415.78L471.9,1696.38L477.62,1696.38L106.77,2430.48L115.22,2434.75L488.22,1696.38L493.59,1696.38L143.64,2448.53L152.22,2452.52L504.03,1696.37L509.09,1696.37L181.09,2465.38L189.8,2469.09L519.39,1696.37L524.17,1696.37L219.06,2481.02L227.88,2484.45L534.32,1696.37L538.85,1696.37L257.5,2495.42L266.43,2498.56L548.89,1696.37L553.21,1696.37L296.4,2508.57L305.43,2511.42L563.14,1696.37L567.27,1696.37L335.7,2520.46L344.81,2523.02L577.1,1696.37L581.07,1696.37L375.36,2531.08L384.55,2533.34L590.82,1696.37L594.65,1696.37L415.35,2540.4L424.61,2542.37L604.33,1696.37L608.04,1696.37L455.61,2548.44L464.93,2550.11L617.65,1696.38L621.26,1696.38L496.11,2555.17L505.48,2556.53L630.83,1696.37L634.36,1696.37L536.81,2560.58L546.22,2561.64L643.89,1696.37L647.36,1696.37L577.66,2564.68L587.09,2565.44L656.85,1696.38L660.28,1696.38L618.62,2567.46L628.07,2567.91L669.76,1696.38L673.16,1696.38L659.65,2568.91L669.12,2569.06L682.63,1696.38L692.28,1696.38L720.65,2568.62L730.11,2568.31L701.75,1696.38L705.16,1696.38L761.66,2566.78L771.11,2566.17L714.65,1696.39L718.1,1696.39L802.6,2563.62L812.02,2562.7L727.61,1696.39L731.11,1696.39L843.4,2559.13L852.79,2557.91L740.65,1696.39L744.22,1696.39L884.04,2553.32L893.38,2551.79L753.81,1696.38L757.47,1696.38L924.48,2546.2L933.77,2544.38L767.12,1696.38L770.89,1696.38L964.66,2537.78L973.88,2535.66L780.59,1696.38L784.49,1696.38L1004.54,2528.07L1013.69,2525.65L794.28,1696.38L798.33,1696.38L1044.1,2517.08L1053.17,2514.37L808.21,1696.39L812.44,1696.39L1083.29,2504.82L1092.27,2501.81L822.43,1696.38L826.86,1696.38L1122.06,2491.29L1130.93,2488L836.95,1696.39L841.61,1696.39L1160.36,2476.53L1169.12,2472.95L851.83,1696.39L856.75,1696.39L1198.17,2460.53L1206.81,2456.67L867.12,1696.39L872.33,1696.39L1235.44,2443.31L1243.95,2439.17L882.85,1696.38L888.4,1696.38L1272.14,2424.9L1280.51,2420.49L899.1,1696.39L905.03,1696.39L1308.22,2405.32L1316.45,2400.64L915.92,1696.39L922.27,1696.39L1343.65,2384.58L1351.72,2379.64L933.36,1696.39L940.19,1696.39L1378.39,2362.71L1386.3,2357.51L951.52,1696.39L958.89,1696.39L1412.4,2339.73L1420.14,2334.28L970.47,1696.4L978.46,1696.4L1445.66,2315.67L1453.21,2309.97L990.31,1696.4L999,1696.4L1478.12,2290.53L1485.49,2284.59L1011.16,1696.4L1020.64,1696.4L1509.77,2264.37L1516.94,2258.19L1033.13,1696.4L1043.51,1696.4L1540.54,2237.19L1547.51,2230.78L1056.36,1696.4L1067.77,1696.4L1570.42,2209.03L1577.18,2202.4L1081.03,1696.39L1093.61,1696.39L1599.38,2179.92L1605.92,2173.08L1107.31,1696.39L1121.25,1696.39L1627.37,2149.89L1633.69,2142.84L1135.43,1696.39L1150.95,1696.39L1654.39,2118.98L1660.48,2111.73L1165.68,1696.39L1183.03,1696.39L1680.4,2087.2L1686.25,2079.76L1198.35,1696.39L1217.85,1696.39L1705.36,2054.61L1710.96,2046.98L1233.83,1696.39L1255.86,1696.39L1729.26,2021.22L1734.61,2013.42L1272.59,1696.39L1297.62,1696.39L1752.06,1987.09L1757.16,1979.12L1315.18,1696.4L1343.81,1696.4L1773.75,1952.24L1778.59,1944.11L1362.32,1696.41L1395.3,1696.41L1794.3,1916.71L1798.88,1908.42L1414.89,1696.41L1420.18,1696.41L1420.18,1679.55L1813.71,1880.52L1818.01,1872.09L1420.18,1668.92L1420.18,1649.96L1831.93,1843.73L1835.96,1835.16L1420.18,1639.49L1420.18,1621.25L1848.94,1806.36L1852.69,1797.67L1420.17,1610.94L1420.17,1593.35L1864.74,1768.47L1868.21,1759.66L1420.17,1583.18L1420.17,1566.15L1879.31,1730.08L1882.49,1721.17L1420.17,1556.1L1420.17,1539.58L1892.63,1691.25L1895.52,1682.24L1420.16,1529.64L1420.16,1513.56L1904.68,1652.01L1907.28,1642.91L1420.16,1503.72L1420.16,1488.02L1915.47,1612.39L1917.78,1603.21L1420.16,1478.26L1420.16,1462.9L1924.98,1572.46L1926.99,1563.21L1420.17,1453.22L1420.17,1438.14L1933.2,1532.24L1934.91,1522.93L1420.18,1428.52L1420.18,1413.67L1940.11,1491.77L1941.51,1482.41L1420.18,1404.1L1420.18,1402.22ZM1479.25,1318.81L1954.57,1328.26L1954.76,1318.8L1481.25,1309.39C1481.12,1312.6 1480.45,1315.79 1479.26,1318.82L1479.25,1318.81ZM1460.56,1343.57L1952.93,1369.28L1953.42,1359.83L1467.9,1334.47C1465.43,1337.41 1462.98,1340.45 1460.56,1343.57ZM1427.99,1390.29L1427.97,1390.32L1945.71,1451.06L1946.81,1441.66L1433.79,1381.47C1431.84,1384.42 1429.9,1387.37 1427.99,1390.29ZM1443.3,1367.32L1949.98,1410.23L1950.78,1400.8L1449.58,1358.36C1447.47,1361.32 1445.37,1364.31 1443.3,1367.33L1443.3,1367.32ZM-98.48,1148.09C-98.95,1146.57 -99.3,1144.99 -99.53,1143.37L-563.26,1054.55L-565.04,1063.85L-100.2,1152.89C-99.76,1151.24 -99.19,1149.63 -98.49,1148.1L-98.48,1148.09ZM-98.12,1117.24L-554.73,1014.39L-556.81,1023.62L-99.65,1126.6C-99.3,1123.22 -98.75,1120.1 -98.12,1117.24ZM-101.16,1279.16L-101.16,1271.77L-586.22,1258.32L-586.48,1267.78L-101.06,1281.24C-101.11,1280.55 -101.16,1279.86 -101.16,1279.16ZM-86.96,1066.48L-533.82,934.99L-536.49,944.07L-93.11,1074.53C-91.56,1071.52 -89.48,1068.79 -86.97,1066.47L-86.96,1066.48ZM294.57,739.06C296.72,738.51 298.89,738.01 301.06,737.53L-36.14,251.14L-43.92,256.53L291.23,739.98C292.34,739.67 293.44,739.35 294.56,739.06L294.57,739.06ZM-96.2,1091.05L-96.2,1090.94L-544.91,974.52L-547.29,983.68L-95.12,1101L-96.2,1091.05ZM-101.16,1169.23L-570.47,1094.96L-571.95,1104.31L-101.16,1178.81L-101.16,1169.23ZM-101.16,1220.82L-580.99,1176.39L-581.86,1185.82L-101.16,1230.33L-101.16,1220.82ZM-101.16,1246.35L-584.26,1217.32L-584.83,1226.77L-101.16,1255.84L-101.16,1246.35ZM-101.16,1195.13L-576.39,1135.59L-577.57,1144.98L-101.17,1204.67L-101.17,1195.13L-101.16,1195.13ZM-103.49,1297.16L-586.85,1299.38L-586.81,1308.85L-105.62,1306.64C-105.45,1303.41 -104.74,1300.21 -103.5,1297.16L-103.49,1297.16ZM739.52,28.61L730.06,28.23L714.96,406.05C718.12,407.12 721.23,408.36 724.29,409.74L739.52,28.6L739.52,28.61ZM657.83,510.51C657.86,510.84 657.87,511.18 657.89,511.52C659.19,509.59 660.39,507.59 661.45,505.49L657.82,510.52L657.83,510.51ZM751.77,427.99L780.5,31.06L771.06,30.38L742.82,420.58C745.71,422.71 748.51,424.98 751.19,427.44C751.39,427.62 751.58,427.81 751.77,427.99ZM789.65,542.44C788.45,552.15 783.5,569.32 777.1,587.88L771.62,627.69C771.9,627.55 772.19,627.4 772.46,627.26C775.6,625.65 778.75,624 781.91,622.33L862.12,39.93L852.74,38.64L789,501.45C791.08,514.75 791.36,528.59 789.64,542.44L789.65,542.44ZM666.65,401.51L657.43,27.68L647.97,27.91L657.23,403.33C660.34,402.58 663.49,401.97 666.65,401.52L666.65,401.51ZM606.28,571.77C579.93,578.54 557.76,604 553.04,632.92C569.22,616.09 585.39,599.27 601.57,582.44L606.28,571.77ZM698.48,27.47L689.01,27.4L686.16,400.59C689.32,400.74 692.48,401.03 695.62,401.47L698.48,27.47ZM626.09,507.42C622.43,493.35 633.73,477.15 647.26,474.68C660.79,472.21 674.17,481.66 679.6,494.96C685.03,508.26 683.41,524.36 677.76,538.13C661.91,576.72 621.02,594.12 590.72,620.99C574.57,635.32 534.09,682.19 548.08,706.36C564,733.89 582,665.42 593.97,652.16C578.98,694.37 590.82,719.38 597.69,758.87C589.97,714.53 604.8,665.2 635.6,632.72C614.93,662.9 610.62,704.9 624.83,737.51C619.9,707.56 627.75,674.77 645.72,650.17C639.99,667.5 639.78,686.57 644.67,703.63C644.9,688.46 647.31,673.33 652.86,659.17C664.48,629.52 688.18,607.49 707,582.32C725.82,557.15 740.51,522.96 729.39,494.26C738.41,509.71 740.13,529.14 739.77,547.84C739.47,563.69 737.81,579.58 734.87,595.25C745.83,578.08 753.46,558.6 755.98,538.28C759.94,506.32 750.25,472.63 728.25,452.43C706.25,432.23 671.89,427.76 645.99,444.44C625.96,457.34 612.65,488.1 626.08,507.42L626.09,507.42ZM806.68,608.37L902.68,46.34L893.35,44.75L796.01,614.63C799.59,612.6 803.15,610.52 806.68,608.38L806.68,608.37ZM776.58,461.81L821.39,34.84L811.98,33.85L768.54,447.81C771.5,452.25 774.19,456.94 776.59,461.81L776.58,461.81ZM1002.84,546.58L1177.82,127.24L1169.08,123.59L998.11,533.32C1000.05,537.6 1001.63,542.04 1002.83,546.57L1002.84,546.58ZM324.82,733.89L-1.94,228.42L-9.89,233.56L314.34,735.12C317.82,734.62 321.32,734.2 324.82,733.89ZM980.19,507.93C982.5,510.13 984.65,512.46 986.66,514.91L1139.74,111.91L1130.89,108.55L979.55,506.97C979.76,507.29 979.99,507.6 980.19,507.93ZM1029.25,612.05L1252.4,161.57L1243.92,157.37L1016.38,616.71C1020.69,615.02 1024.99,613.48 1029.25,612.05ZM1001.51,593.83C999.18,600.67 995.93,606.53 991.87,611.42L987.37,621.3C988.18,624.13 988.82,627 989.26,629.91C991.31,628.67 993.38,627.5 995.46,626.37L1215.39,143.8L1206.78,139.87L1003.96,584.9C1003.32,587.91 1002.51,590.89 1001.51,593.82L1001.51,593.83ZM855.2,570.49C858.74,566.72 861.99,562.82 864.99,558.85L983.06,63.07L973.85,60.88L851.62,574.16C852.83,572.95 854.03,571.74 855.2,570.49ZM912.21,459.51L916.53,458.9C916.94,458.84 917.35,458.81 917.76,458.76L1022.8,73.37L1013.67,70.88L907.44,460.62C908.98,460.13 910.56,459.74 912.21,459.51ZM964.35,494.13C964.47,494.54 964.57,494.95 964.69,495.36L1101.18,97.8L1092.23,94.72L959.29,481.95C961.44,485.82 963.14,489.94 964.35,494.12L964.35,494.13ZM945.07,465.71L1062.19,84.95L1053.14,82.17L936.59,461.11C939.63,462.3 942.46,463.86 945.08,465.71L945.07,465.71ZM833.53,590.03L943,54.06L933.73,52.17L822.17,598.38C826.04,595.7 829.83,592.92 833.53,590.04L833.53,590.03ZM427.13,495.73L294.28,88.63L285.28,91.57L416.58,493.93C420.09,494.36 423.6,494.96 427.12,495.73L427.13,495.73ZM369.63,498.44L216.99,116.32L208.2,119.83L360.82,501.89C363.7,500.59 366.64,499.44 369.63,498.43L369.63,498.44ZM397.26,493.19L255.42,101.85L246.52,105.08L387.53,494.13C390.74,493.67 393.99,493.36 397.26,493.2L397.26,493.19ZM345.98,513.63L179.06,132.03L170.39,135.82L341.38,526.72C341.85,522.04 343.43,517.55 345.99,513.63L345.98,513.63ZM360.61,570.7C360.78,568.83 360.99,566.96 361.28,565.1C359.83,564.45 358.46,563.65 357.14,562.77L360.61,570.7ZM366.5,734.61C363.09,728.62 360.6,722.03 359.09,714.91C358.34,711.35 357.85,707.7 357.63,704.01L68.57,186.37L60.31,190.99L363.7,734.31C364.63,734.41 365.57,734.51 366.5,734.62L366.5,734.61ZM349.67,733.27L32.98,206.83L24.87,211.71L338.56,733.16C342.27,733.09 345.97,733.13 349.67,733.27ZM362.42,671.4C362.76,670.47 363.18,669.32 363.68,668.03L104.81,167.07L96.4,171.41L359.63,680.8C360.37,677.62 361.3,674.47 362.42,671.4ZM374.1,648.24C375.19,646.74 376.34,645.33 377.52,643.99L141.65,148.95L133.11,153.02L371.17,652.65C372.08,651.18 373.05,649.7 374.11,648.24L374.1,648.24ZM531.67,592.09C531.76,591.92 531.87,591.75 531.96,591.58L413.17,56.59L403.93,58.64L515.07,559.15C521.77,569.72 527.21,580.75 531.68,592.09L531.67,592.09ZM572.66,549.36L493.91,41.7L484.56,43.15L563.97,555.05C566.78,553.01 569.68,551.11 572.67,549.36L572.66,549.36ZM593.88,540.03C594.44,538.74 595.05,537.45 595.68,536.17L593.56,518.84C587.05,505.71 585.13,490.33 588.15,474.58L534.59,36.22L525.2,37.37L586.92,542.48C589.21,541.59 591.52,540.76 593.88,540.04L593.88,540.03ZM611.06,429.98L575.44,32.04L566.01,32.88L602.52,440.72C605.11,436.93 607.97,433.33 611.06,429.98ZM638.12,410.09L616.4,29.2L606.95,29.74L628.93,415.14C631.92,413.28 634.98,411.6 638.12,410.1L638.12,410.09ZM458.82,507.2L333.56,76.67L324.47,79.31L447.44,501.97C451.29,503.52 455.08,505.27 458.82,507.19L458.82,507.2ZM492.38,531.14L373.2,65.99L364.03,68.34L479.88,520.51C484.25,523.82 488.43,527.37 492.38,531.14ZM550.94,566.19L453.42,48.49L444.12,50.24L542.99,575.07C545.49,571.96 548.15,568.99 550.95,566.18L550.94,566.19ZM621.99,570.62C643.91,562.12 659.55,536.26 657.89,511.52C651.96,520.32 643.95,527.53 636.94,535.48C628.39,545.17 620.78,557.64 621.99,570.62Z" style="fill:url(#_Radial3);fill-rule:nonzero;"/>
                </g>
            </g>
        </g>
    </g>
    <defs>
        <radialGradient id="_Radial3" cx="0" cy="0" r="1" gradientUnits="userSpaceOnUse" gradientTransform="matrix(1270.85,0,0,1270.85,684.01,1298.24)"><stop offset="0" style="stop-color:rgb(26,26,26);stop-opacity:1"/><stop offset="0.8" style="stop-color:rgb(17,17,17);stop-opacity:1"/><stop offset="0.95" style="stop-color:rgb(5,5,5);stop-opacity:1"/><stop offset="1" style="stop-color:black;stop-opacity:1"/></radialGradient>
    </defs>
</svg>
